%TF.GenerationSoftware,KiCad,Pcbnew,10.0.3*%
%TF.CreationDate,2026-05-30T23:46:24-07:00*%
%TF.ProjectId,steno,7374656e-6f2e-46b6-9963-61645f706362,rev?*%
%TF.SameCoordinates,Original*%
%TF.FileFunction,Soldermask,Bot*%
%TF.FilePolarity,Negative*%
%FSLAX46Y46*%
G04 Gerber Fmt 4.6, Leading zero omitted, Abs format (unit mm)*
G04 Created by KiCad (PCBNEW 10.0.3) date 2026-05-30 23:46:24*
%MOMM*%
%LPD*%
G01*
G04 APERTURE LIST*
G04 Aperture macros list*
%AMRoundRect*
0 Rectangle with rounded corners*
0 $1 Rounding radius*
0 $2 $3 $4 $5 $6 $7 $8 $9 X,Y pos of 4 corners*
0 Add a 4 corners polygon primitive as box body*
4,1,4,$2,$3,$4,$5,$6,$7,$8,$9,$2,$3,0*
0 Add four circle primitives for the rounded corners*
1,1,$1+$1,$2,$3*
1,1,$1+$1,$4,$5*
1,1,$1+$1,$6,$7*
1,1,$1+$1,$8,$9*
0 Add four rect primitives between the rounded corners*
20,1,$1+$1,$2,$3,$4,$5,0*
20,1,$1+$1,$4,$5,$6,$7,0*
20,1,$1+$1,$6,$7,$8,$9,0*
20,1,$1+$1,$8,$9,$2,$3,0*%
G04 Aperture macros list end*
%ADD10R,3.200000X3.200000*%
%ADD11RoundRect,0.050000X0.050000X0.387500X-0.050000X0.387500X-0.050000X-0.387500X0.050000X-0.387500X0*%
%ADD12RoundRect,0.050000X0.387500X0.050000X-0.387500X0.050000X-0.387500X-0.050000X0.387500X-0.050000X0*%
%ADD13C,1.900000*%
%ADD14C,1.600000*%
%ADD15C,3.050000*%
%ADD16C,5.050000*%
%ADD17RoundRect,0.250000X-1.025000X-1.000000X1.025000X-1.000000X1.025000X1.000000X-1.025000X1.000000X0*%
%ADD18C,3.800000*%
%ADD19C,0.650000*%
%ADD20O,1.000000X2.100000*%
%ADD21O,1.000000X1.600000*%
%ADD22RoundRect,0.250000X0.300000X-0.300000X0.300000X0.300000X-0.300000X0.300000X-0.300000X-0.300000X0*%
%ADD23RoundRect,0.140000X-0.140000X-0.170000X0.140000X-0.170000X0.140000X0.170000X-0.140000X0.170000X0*%
%ADD24RoundRect,0.140000X-0.170000X0.140000X-0.170000X-0.140000X0.170000X-0.140000X0.170000X0.140000X0*%
%ADD25RoundRect,0.250000X-0.800000X-0.650000X0.800000X-0.650000X0.800000X0.650000X-0.800000X0.650000X0*%
%ADD26R,0.711200X0.990600*%
%ADD27RoundRect,0.140000X0.140000X0.170000X-0.140000X0.170000X-0.140000X-0.170000X0.140000X-0.170000X0*%
%ADD28RoundRect,0.135000X-0.185000X0.135000X-0.185000X-0.135000X0.185000X-0.135000X0.185000X0.135000X0*%
%ADD29RoundRect,0.375000X-0.375000X0.625000X-0.375000X-0.625000X0.375000X-0.625000X0.375000X0.625000X0*%
%ADD30RoundRect,0.500000X-1.400000X0.500000X-1.400000X-0.500000X1.400000X-0.500000X1.400000X0.500000X0*%
%ADD31RoundRect,0.162500X0.650000X0.162500X-0.650000X0.162500X-0.650000X-0.162500X0.650000X-0.162500X0*%
%ADD32RoundRect,0.225000X0.225000X0.250000X-0.225000X0.250000X-0.225000X-0.250000X0.225000X-0.250000X0*%
%ADD33RoundRect,0.135000X-0.135000X-0.185000X0.135000X-0.185000X0.135000X0.185000X-0.135000X0.185000X0*%
%ADD34RoundRect,0.140000X0.170000X-0.140000X0.170000X0.140000X-0.170000X0.140000X-0.170000X-0.140000X0*%
%ADD35RoundRect,0.135000X0.185000X-0.135000X0.185000X0.135000X-0.185000X0.135000X-0.185000X-0.135000X0*%
G04 APERTURE END LIST*
D10*
%TO.C,U3*%
X150100000Y-114062500D03*
D11*
X152700000Y-110625000D03*
X152300000Y-110625000D03*
X151900000Y-110625000D03*
X151500000Y-110625000D03*
X151100000Y-110625000D03*
X150700000Y-110625000D03*
X150300000Y-110625000D03*
X149900000Y-110625000D03*
X149500000Y-110625000D03*
X149100000Y-110625000D03*
X148700000Y-110625000D03*
X148300000Y-110625000D03*
X147900000Y-110625000D03*
X147500000Y-110625000D03*
D12*
X146662500Y-111462500D03*
X146662500Y-111862500D03*
X146662500Y-112262500D03*
X146662500Y-112662500D03*
X146662500Y-113062500D03*
X146662500Y-113462500D03*
X146662500Y-113862500D03*
X146662500Y-114262500D03*
X146662500Y-114662500D03*
X146662500Y-115062500D03*
X146662500Y-115462500D03*
X146662500Y-115862500D03*
X146662500Y-116262500D03*
X146662500Y-116662500D03*
D11*
X147500000Y-117500000D03*
X147900000Y-117500000D03*
X148300000Y-117500000D03*
X148700000Y-117500000D03*
X149100000Y-117500000D03*
X149500000Y-117500000D03*
X149900000Y-117500000D03*
X150300000Y-117500000D03*
X150700000Y-117500000D03*
X151100000Y-117500000D03*
X151500000Y-117500000D03*
X151900000Y-117500000D03*
X152300000Y-117500000D03*
X152700000Y-117500000D03*
D12*
X153537500Y-116662500D03*
X153537500Y-116262500D03*
X153537500Y-115862500D03*
X153537500Y-115462500D03*
X153537500Y-115062500D03*
X153537500Y-114662500D03*
X153537500Y-114262500D03*
X153537500Y-113862500D03*
X153537500Y-113462500D03*
X153537500Y-113062500D03*
X153537500Y-112662500D03*
X153537500Y-112262500D03*
X153537500Y-111862500D03*
X153537500Y-111462500D03*
%TD*%
D13*
%TO.C,S23_E1*%
X168600000Y-123400000D03*
D14*
X169100000Y-128550000D03*
D15*
X174100000Y-117500000D03*
D16*
X174100000Y-123400000D03*
D15*
X179100000Y-119600000D03*
D13*
X179600000Y-123400000D03*
D17*
X170600000Y-117400000D03*
X182600000Y-119600000D03*
%TD*%
D13*
%TO.C,S3_P1*%
X84600000Y-89400000D03*
D14*
X85100000Y-94550000D03*
D15*
X90100000Y-83500000D03*
D16*
X90100000Y-89400000D03*
D15*
X95100000Y-85600000D03*
D13*
X95600000Y-89400000D03*
D17*
X86600000Y-83400000D03*
X98600000Y-85600000D03*
%TD*%
D13*
%TO.C,S10_\u002A1*%
X120600000Y-106400000D03*
D14*
X121100000Y-111550000D03*
D15*
X126100000Y-100500000D03*
D16*
X126100000Y-106400000D03*
D15*
X131100000Y-102600000D03*
D13*
X131600000Y-106400000D03*
D17*
X122600000Y-100400000D03*
X134600000Y-102600000D03*
%TD*%
D13*
%TO.C,S12_P1*%
X222600000Y-89400000D03*
D14*
X223100000Y-94550000D03*
D15*
X228100000Y-83500000D03*
D16*
X228100000Y-89400000D03*
D15*
X233100000Y-85600000D03*
D13*
X233600000Y-89400000D03*
D17*
X224600000Y-83400000D03*
X236600000Y-85600000D03*
%TD*%
D13*
%TO.C,S1_S1*%
X48600000Y-89400000D03*
D14*
X49100000Y-94550000D03*
D15*
X54100000Y-83500000D03*
D16*
X54100000Y-89400000D03*
D15*
X59100000Y-85600000D03*
D13*
X59600000Y-89400000D03*
D17*
X50600000Y-83400000D03*
X62600000Y-85600000D03*
%TD*%
D13*
%TO.C,S16_R1*%
X240600000Y-106400000D03*
D14*
X241100000Y-111550000D03*
D15*
X246100000Y-100500000D03*
D16*
X246100000Y-106400000D03*
D15*
X251100000Y-102600000D03*
D13*
X251600000Y-106400000D03*
D17*
X242600000Y-100400000D03*
X254600000Y-102600000D03*
%TD*%
D13*
%TO.C,S13_L1*%
X204600000Y-89400000D03*
D14*
X205100000Y-94550000D03*
D15*
X210100000Y-83500000D03*
D16*
X210100000Y-89400000D03*
D15*
X215100000Y-85600000D03*
D13*
X215600000Y-89400000D03*
D17*
X206600000Y-83400000D03*
X218600000Y-85600000D03*
%TD*%
D13*
%TO.C,S24_U1*%
X186600000Y-123400000D03*
D14*
X187100000Y-128550000D03*
D15*
X192100000Y-117500000D03*
D16*
X192100000Y-123400000D03*
D15*
X197100000Y-119600000D03*
D13*
X197600000Y-123400000D03*
D17*
X188600000Y-117400000D03*
X200600000Y-119600000D03*
%TD*%
D13*
%TO.C,S18_G1*%
X204600000Y-106400000D03*
D14*
X205100000Y-111550000D03*
D15*
X210100000Y-100500000D03*
D16*
X210100000Y-106400000D03*
D15*
X215100000Y-102600000D03*
D13*
X215600000Y-106400000D03*
D17*
X206600000Y-100400000D03*
X218600000Y-102600000D03*
%TD*%
D13*
%TO.C,S15_D1*%
X168600000Y-89400000D03*
D14*
X169100000Y-94550000D03*
D15*
X174100000Y-83500000D03*
D16*
X174100000Y-89400000D03*
D15*
X179100000Y-85600000D03*
D13*
X179600000Y-89400000D03*
D17*
X170600000Y-83400000D03*
X182600000Y-85600000D03*
%TD*%
D13*
%TO.C,S20_Z1*%
X168600000Y-106400000D03*
D14*
X169100000Y-111550000D03*
D15*
X174100000Y-100500000D03*
D16*
X174100000Y-106400000D03*
D15*
X179100000Y-102600000D03*
D13*
X179600000Y-106400000D03*
D17*
X170600000Y-100400000D03*
X182600000Y-102600000D03*
%TD*%
D13*
%TO.C,S8_W1*%
X84600000Y-106400000D03*
D14*
X85100000Y-111550000D03*
D15*
X90100000Y-100500000D03*
D16*
X90100000Y-106400000D03*
D15*
X95100000Y-102600000D03*
D13*
X95600000Y-106400000D03*
D17*
X86600000Y-100400000D03*
X98600000Y-102600000D03*
%TD*%
D18*
%TO.C,REF\u002A\u002A*%
X43100000Y-117900000D03*
%TD*%
D13*
%TO.C,S9_R1*%
X102600000Y-106400000D03*
D14*
X103100000Y-111550000D03*
D15*
X108100000Y-100500000D03*
D16*
X108100000Y-106400000D03*
D15*
X113100000Y-102600000D03*
D13*
X113600000Y-106400000D03*
D17*
X104600000Y-100400000D03*
X116600000Y-102600000D03*
%TD*%
D13*
%TO.C,S11_F1*%
X240600000Y-89400000D03*
D14*
X241100000Y-94550000D03*
D15*
X246100000Y-83500000D03*
D16*
X246100000Y-89400000D03*
D15*
X251100000Y-85600000D03*
D13*
X251600000Y-89400000D03*
D17*
X242600000Y-83400000D03*
X254600000Y-85600000D03*
%TD*%
D13*
%TO.C,S21_O1*%
X120600000Y-123400000D03*
D14*
X121100000Y-128550000D03*
D15*
X126100000Y-117500000D03*
D16*
X126100000Y-123400000D03*
D15*
X131100000Y-119600000D03*
D13*
X131600000Y-123400000D03*
D17*
X122600000Y-117400000D03*
X134600000Y-119600000D03*
%TD*%
D13*
%TO.C,S2_T1*%
X66600000Y-89400000D03*
D14*
X67100000Y-94550000D03*
D15*
X72100000Y-83500000D03*
D16*
X72100000Y-89400000D03*
D15*
X77100000Y-85600000D03*
D13*
X77600000Y-89400000D03*
D17*
X68600000Y-83400000D03*
X80600000Y-85600000D03*
%TD*%
D13*
%TO.C,S5_\u002A1*%
X120600000Y-89400000D03*
D14*
X121100000Y-94550000D03*
D15*
X126100000Y-83500000D03*
D16*
X126100000Y-89400000D03*
D15*
X131100000Y-85600000D03*
D13*
X131600000Y-89400000D03*
D17*
X122600000Y-83400000D03*
X134600000Y-85600000D03*
%TD*%
D18*
%TO.C,REF\u002A\u002A*%
X257100000Y-117900000D03*
%TD*%
D13*
%TO.C,S14_T1*%
X186600000Y-89400000D03*
D14*
X187100000Y-94550000D03*
D15*
X192100000Y-83500000D03*
D16*
X192100000Y-89400000D03*
D15*
X197100000Y-85600000D03*
D13*
X197600000Y-89400000D03*
D17*
X188600000Y-83400000D03*
X200600000Y-85600000D03*
%TD*%
D19*
%TO.C,J2*%
X152990000Y-81535000D03*
X147210000Y-81535000D03*
D20*
X154420000Y-82035000D03*
D21*
X154420000Y-77855000D03*
D20*
X145780000Y-82035000D03*
D21*
X145780000Y-77855000D03*
%TD*%
D13*
%TO.C,S19_S1*%
X186600000Y-106400000D03*
D14*
X187100000Y-111550000D03*
D15*
X192100000Y-100500000D03*
D16*
X192100000Y-106400000D03*
D15*
X197100000Y-102600000D03*
D13*
X197600000Y-106400000D03*
D17*
X188600000Y-100400000D03*
X200600000Y-102600000D03*
%TD*%
D13*
%TO.C,S6_S1*%
X48600000Y-106400000D03*
D14*
X49100000Y-111550000D03*
D15*
X54100000Y-100500000D03*
D16*
X54100000Y-106400000D03*
D15*
X59100000Y-102600000D03*
D13*
X59600000Y-106400000D03*
D17*
X50600000Y-100400000D03*
X62600000Y-102600000D03*
%TD*%
D13*
%TO.C,S7_K1*%
X66600000Y-106400000D03*
D14*
X67100000Y-111550000D03*
D15*
X72100000Y-100500000D03*
D16*
X72100000Y-106400000D03*
D15*
X77100000Y-102600000D03*
D13*
X77600000Y-106400000D03*
D17*
X68600000Y-100400000D03*
X80600000Y-102600000D03*
%TD*%
D18*
%TO.C,REF\u002A\u002A*%
X257100000Y-79900000D03*
%TD*%
%TO.C,REF\u002A\u002A*%
X43100000Y-79900000D03*
%TD*%
D13*
%TO.C,S4_H1*%
X102600000Y-89400000D03*
D14*
X103100000Y-94550000D03*
D15*
X108100000Y-83500000D03*
D16*
X108100000Y-89400000D03*
D15*
X113100000Y-85600000D03*
D13*
X113600000Y-89400000D03*
D17*
X104600000Y-83400000D03*
X116600000Y-85600000D03*
%TD*%
D13*
%TO.C,S22_A1*%
X102600000Y-123400000D03*
D14*
X103100000Y-128550000D03*
D15*
X108100000Y-117500000D03*
D16*
X108100000Y-123400000D03*
D15*
X113100000Y-119600000D03*
D13*
X113600000Y-123400000D03*
D17*
X104600000Y-117400000D03*
X116600000Y-119600000D03*
%TD*%
D13*
%TO.C,S17_B1*%
X222600000Y-106400000D03*
D14*
X223100000Y-111550000D03*
D15*
X228100000Y-100500000D03*
D16*
X228100000Y-106400000D03*
D15*
X233100000Y-102600000D03*
D13*
X233600000Y-106400000D03*
D17*
X224600000Y-100400000D03*
X236600000Y-102600000D03*
%TD*%
D22*
%TO.C,D19*%
X201100000Y-107800000D03*
X201100000Y-105000000D03*
%TD*%
%TO.C,D16*%
X117100000Y-90800000D03*
X117100000Y-88000000D03*
%TD*%
D23*
%TO.C,C14*%
X154820000Y-111200000D03*
X155780000Y-111200000D03*
%TD*%
D24*
%TO.C,C12*%
X145200000Y-115070000D03*
X145200000Y-116030000D03*
%TD*%
D25*
%TO.C,Y1*%
X148650000Y-125050000D03*
X151550000Y-125050000D03*
X151550000Y-127350000D03*
X148650000Y-127350000D03*
%TD*%
D24*
%TO.C,C1*%
X149600000Y-120020000D03*
X149600000Y-120980000D03*
%TD*%
D22*
%TO.C,D3*%
X63100000Y-107800000D03*
X63100000Y-105000000D03*
%TD*%
%TO.C,D18*%
X201100000Y-90800000D03*
X201100000Y-88000000D03*
%TD*%
D26*
%TO.C,RST1*%
X139474981Y-110837498D03*
X139474981Y-115337500D03*
X141624979Y-110837498D03*
X141624979Y-115337500D03*
%TD*%
D27*
%TO.C,C18*%
X145880000Y-109700000D03*
X144920000Y-109700000D03*
%TD*%
D22*
%TO.C,D12*%
X99100000Y-107800000D03*
X99100000Y-105000000D03*
%TD*%
%TO.C,D7*%
X81100000Y-107800000D03*
X81100000Y-105000000D03*
%TD*%
%TO.C,D10*%
X201100000Y-124800000D03*
X201100000Y-122000000D03*
%TD*%
%TO.C,D11*%
X99100000Y-91050000D03*
X99100000Y-88250000D03*
%TD*%
%TO.C,D8*%
X237100000Y-90800000D03*
X237100000Y-88000000D03*
%TD*%
D28*
%TO.C,R3*%
X148325000Y-86665000D03*
X148325000Y-87685000D03*
%TD*%
D22*
%TO.C,D20*%
X117100000Y-124800000D03*
X117100000Y-122000000D03*
%TD*%
D23*
%TO.C,C8*%
X147770000Y-122930000D03*
X148730000Y-122930000D03*
%TD*%
D22*
%TO.C,D13*%
X219100000Y-90800000D03*
X219100000Y-88000000D03*
%TD*%
%TO.C,D25*%
X135100000Y-124800000D03*
X135100000Y-122000000D03*
%TD*%
D28*
%TO.C,R2*%
X152245000Y-86665000D03*
X152245000Y-87685000D03*
%TD*%
D29*
%TO.C,U4*%
X139500000Y-94850000D03*
X141800000Y-94850000D03*
D30*
X141800000Y-101150000D03*
D29*
X144100000Y-94850000D03*
%TD*%
D31*
%TO.C,U1*%
X161287500Y-99895000D03*
X161287500Y-101165000D03*
X161287500Y-102435000D03*
X161287500Y-103705000D03*
X154112500Y-103705000D03*
X154112500Y-102435000D03*
X154112500Y-101165000D03*
X154112500Y-99895000D03*
%TD*%
D28*
%TO.C,R5*%
X148000000Y-107390000D03*
X148000000Y-108410000D03*
%TD*%
D32*
%TO.C,C3*%
X142575000Y-92370000D03*
X141025000Y-92370000D03*
%TD*%
D22*
%TO.C,D21*%
X135100000Y-90800000D03*
X135100000Y-88000000D03*
%TD*%
D33*
%TO.C,R6*%
X146390000Y-119120000D03*
X147410000Y-119120000D03*
%TD*%
D34*
%TO.C,C17*%
X146000000Y-108355000D03*
X146000000Y-107395000D03*
%TD*%
D22*
%TO.C,D9*%
X237100000Y-107800000D03*
X237100000Y-105000000D03*
%TD*%
D28*
%TO.C,R4*%
X147000000Y-107390000D03*
X147000000Y-108410000D03*
%TD*%
D34*
%TO.C,C11*%
X151300000Y-107080000D03*
X151300000Y-106120000D03*
%TD*%
D28*
%TO.C,R1*%
X161300000Y-96815000D03*
X161300000Y-97835000D03*
%TD*%
D22*
%TO.C,D23*%
X183100000Y-90800000D03*
X183100000Y-88000000D03*
%TD*%
D34*
%TO.C,C9*%
X149000000Y-108380000D03*
X149000000Y-107420000D03*
%TD*%
D22*
%TO.C,D22*%
X135100000Y-107800000D03*
X135100000Y-105000000D03*
%TD*%
D35*
%TO.C,R8*%
X160500000Y-83610000D03*
X160500000Y-82590000D03*
%TD*%
D27*
%TO.C,C13*%
X145360000Y-111500000D03*
X144400000Y-111500000D03*
%TD*%
D22*
%TO.C,D2*%
X63100000Y-90800000D03*
X63100000Y-88000000D03*
%TD*%
%TO.C,D17*%
X117100000Y-107800000D03*
X117100000Y-105000000D03*
%TD*%
D24*
%TO.C,C16*%
X148600000Y-120020000D03*
X148600000Y-120980000D03*
%TD*%
%TO.C,C15*%
X154875000Y-115070000D03*
X154875000Y-116030000D03*
%TD*%
D27*
%TO.C,C2*%
X154105000Y-98400000D03*
X153145000Y-98400000D03*
%TD*%
D22*
%TO.C,D6*%
X81100000Y-90800000D03*
X81100000Y-88000000D03*
%TD*%
D27*
%TO.C,C7*%
X152430000Y-122930000D03*
X151470000Y-122930000D03*
%TD*%
D22*
%TO.C,D1*%
X144360000Y-89400000D03*
X144360000Y-86600000D03*
%TD*%
%TO.C,D4*%
X255100000Y-90800000D03*
X255100000Y-88000000D03*
%TD*%
D35*
%TO.C,R7*%
X150600000Y-121010000D03*
X150600000Y-119990000D03*
%TD*%
D22*
%TO.C,D15*%
X183100000Y-124800000D03*
X183100000Y-122000000D03*
%TD*%
%TO.C,D5*%
X255100000Y-107800000D03*
X255100000Y-105000000D03*
%TD*%
D26*
%TO.C,BOOTSEL1*%
X160774999Y-115350001D03*
X160774999Y-110849999D03*
X158625001Y-115350001D03*
X158625001Y-110849999D03*
%TD*%
D22*
%TO.C,D14*%
X219100000Y-107800000D03*
X219100000Y-105000000D03*
%TD*%
%TO.C,D24*%
X183100000Y-107800000D03*
X183100000Y-105000000D03*
%TD*%
D32*
%TO.C,C5*%
X142575000Y-103630000D03*
X141025000Y-103630000D03*
%TD*%
D34*
%TO.C,C19*%
X152700000Y-107080000D03*
X152700000Y-106120000D03*
%TD*%
M02*
