M48
; DRILL file KiCad 10.0.3 date 2026-05-31T13:41:55
; FORMAT={-:-/ absolute / metric / decimal}
; #@! TF.CreationDate,2026-05-31T13:41:55-07:00
; #@! TF.GenerationSoftware,Kicad,Pcbnew,10.0.3
; #@! TF.FileFunction,NonPlated,1,4,NPTH
FMAT,2
METRIC
; #@! TA.AperFunction,NonPlated,NPTH,ComponentDrill
T1C0.650
; #@! TA.AperFunction,NonPlated,NPTH,ComponentDrill
T2C1.600
; #@! TA.AperFunction,NonPlated,NPTH,ComponentDrill
T3C1.900
; #@! TA.AperFunction,NonPlated,NPTH,ComponentDrill
T4C3.050
; #@! TA.AperFunction,NonPlated,NPTH,ComponentDrill
T5C5.050
%
G90
G05
T1
X147.21Y-81.535
X152.99Y-81.535
T2
X49.1Y-94.55
X49.1Y-111.55
X67.1Y-94.55
X67.1Y-111.55
X85.1Y-94.55
X85.1Y-111.55
X103.1Y-94.55
X103.1Y-111.55
X103.1Y-128.55
X121.1Y-94.55
X121.1Y-111.55
X121.1Y-128.55
X169.1Y-94.55
X169.1Y-111.55
X169.1Y-128.55
X187.1Y-94.55
X187.1Y-111.55
X187.1Y-128.55
X205.1Y-94.55
X205.1Y-111.55
X223.1Y-94.55
X223.1Y-111.55
X241.1Y-94.55
X241.1Y-111.55
T3
X48.6Y-89.4
X48.6Y-106.4
X59.6Y-89.4
X59.6Y-106.4
X66.6Y-89.4
X66.6Y-106.4
X77.6Y-89.4
X77.6Y-106.4
X84.6Y-89.4
X84.6Y-106.4
X95.6Y-89.4
X95.6Y-106.4
X102.6Y-89.4
X102.6Y-106.4
X102.6Y-123.4
X113.6Y-89.4
X113.6Y-106.4
X113.6Y-123.4
X120.6Y-89.4
X120.6Y-106.4
X120.6Y-123.4
X131.6Y-89.4
X131.6Y-106.4
X131.6Y-123.4
X168.6Y-89.4
X168.6Y-106.4
X168.6Y-123.4
X179.6Y-89.4
X179.6Y-106.4
X179.6Y-123.4
X186.6Y-89.4
X186.6Y-106.4
X186.6Y-123.4
X197.6Y-89.4
X197.6Y-106.4
X197.6Y-123.4
X204.6Y-89.4
X204.6Y-106.4
X215.6Y-89.4
X215.6Y-106.4
X222.6Y-89.4
X222.6Y-106.4
X233.6Y-89.4
X233.6Y-106.4
X240.6Y-89.4
X240.6Y-106.4
X251.6Y-89.4
X251.6Y-106.4
T4
X54.1Y-83.5
X54.1Y-100.5
X59.1Y-85.6
X59.1Y-102.6
X72.1Y-83.5
X72.1Y-100.5
X77.1Y-85.6
X77.1Y-102.6
X90.1Y-83.5
X90.1Y-100.5
X95.1Y-85.6
X95.1Y-102.6
X108.1Y-83.5
X108.1Y-100.5
X108.1Y-117.5
X113.1Y-85.6
X113.1Y-102.6
X113.1Y-119.6
X126.1Y-83.5
X126.1Y-100.5
X126.1Y-117.5
X131.1Y-85.6
X131.1Y-102.6
X131.1Y-119.6
X174.1Y-83.5
X174.1Y-100.5
X174.1Y-117.5
X179.1Y-85.6
X179.1Y-102.6
X179.1Y-119.6
X192.1Y-83.5
X192.1Y-100.5
X192.1Y-117.5
X197.1Y-85.6
X197.1Y-102.6
X197.1Y-119.6
X210.1Y-83.5
X210.1Y-100.5
X215.1Y-85.6
X215.1Y-102.6
X228.1Y-83.5
X228.1Y-100.5
X233.1Y-85.6
X233.1Y-102.6
X246.1Y-83.5
X246.1Y-100.5
X251.1Y-85.6
X251.1Y-102.6
T5
X54.1Y-89.4
X54.1Y-106.4
X72.1Y-89.4
X72.1Y-106.4
X90.1Y-89.4
X90.1Y-106.4
X108.1Y-89.4
X108.1Y-106.4
X108.1Y-123.4
X126.1Y-89.4
X126.1Y-106.4
X126.1Y-123.4
X174.1Y-89.4
X174.1Y-106.4
X174.1Y-123.4
X192.1Y-89.4
X192.1Y-106.4
X192.1Y-123.4
X210.1Y-89.4
X210.1Y-106.4
X228.1Y-89.4
X228.1Y-106.4
X246.1Y-89.4
X246.1Y-106.4
M30
