%TF.GenerationSoftware,KiCad,Pcbnew,10.0.3*%
%TF.CreationDate,2026-05-31T13:41:57-07:00*%
%TF.ProjectId,steno,7374656e-6f2e-46b6-9963-61645f706362,rev?*%
%TF.SameCoordinates,Original*%
%TF.FileFunction,Soldermask,Top*%
%TF.FilePolarity,Negative*%
%FSLAX46Y46*%
G04 Gerber Fmt 4.6, Leading zero omitted, Abs format (unit mm)*
G04 Created by KiCad (PCBNEW 10.0.3) date 2026-05-31 13:41:57*
%MOMM*%
%LPD*%
G01*
G04 APERTURE LIST*
G04 Aperture macros list*
%AMRoundRect*
0 Rectangle with rounded corners*
0 $1 Rounding radius*
0 $2 $3 $4 $5 $6 $7 $8 $9 X,Y pos of 4 corners*
0 Add a 4 corners polygon primitive as box body*
4,1,4,$2,$3,$4,$5,$6,$7,$8,$9,$2,$3,0*
0 Add four circle primitives for the rounded corners*
1,1,$1+$1,$2,$3*
1,1,$1+$1,$4,$5*
1,1,$1+$1,$6,$7*
1,1,$1+$1,$8,$9*
0 Add four rect primitives between the rounded corners*
20,1,$1+$1,$2,$3,$4,$5,0*
20,1,$1+$1,$4,$5,$6,$7,0*
20,1,$1+$1,$6,$7,$8,$9,0*
20,1,$1+$1,$8,$9,$2,$3,0*%
G04 Aperture macros list end*
%ADD10RoundRect,0.147500X0.172500X-0.147500X0.172500X0.147500X-0.172500X0.147500X-0.172500X-0.147500X0*%
%ADD11C,1.900000*%
%ADD12C,1.600000*%
%ADD13C,3.050000*%
%ADD14C,5.050000*%
%ADD15C,3.800000*%
%ADD16C,0.650000*%
%ADD17RoundRect,0.150000X0.150000X0.500000X-0.150000X0.500000X-0.150000X-0.500000X0.150000X-0.500000X0*%
%ADD18RoundRect,0.075000X0.075000X0.575000X-0.075000X0.575000X-0.075000X-0.575000X0.075000X-0.575000X0*%
%ADD19O,1.000000X2.100000*%
%ADD20O,1.000000X1.600000*%
G04 APERTURE END LIST*
D10*
%TO.C,LED1*%
X158000000Y-83585000D03*
X158000000Y-82615000D03*
%TD*%
D11*
%TO.C,S23_E1*%
X168600000Y-123400000D03*
D12*
X169100000Y-128550000D03*
D13*
X174100000Y-117500000D03*
D14*
X174100000Y-123400000D03*
D13*
X179100000Y-119600000D03*
D11*
X179600000Y-123400000D03*
%TD*%
%TO.C,S3_P1*%
X84600000Y-89400000D03*
D12*
X85100000Y-94550000D03*
D13*
X90100000Y-83500000D03*
D14*
X90100000Y-89400000D03*
D13*
X95100000Y-85600000D03*
D11*
X95600000Y-89400000D03*
%TD*%
%TO.C,S10_\u002A1*%
X120600000Y-106400000D03*
D12*
X121100000Y-111550000D03*
D13*
X126100000Y-100500000D03*
D14*
X126100000Y-106400000D03*
D13*
X131100000Y-102600000D03*
D11*
X131600000Y-106400000D03*
%TD*%
%TO.C,S12_P1*%
X222600000Y-89400000D03*
D12*
X223100000Y-94550000D03*
D13*
X228100000Y-83500000D03*
D14*
X228100000Y-89400000D03*
D13*
X233100000Y-85600000D03*
D11*
X233600000Y-89400000D03*
%TD*%
%TO.C,S1_S1*%
X48600000Y-89400000D03*
D12*
X49100000Y-94550000D03*
D13*
X54100000Y-83500000D03*
D14*
X54100000Y-89400000D03*
D13*
X59100000Y-85600000D03*
D11*
X59600000Y-89400000D03*
%TD*%
%TO.C,S16_R1*%
X240600000Y-106400000D03*
D12*
X241100000Y-111550000D03*
D13*
X246100000Y-100500000D03*
D14*
X246100000Y-106400000D03*
D13*
X251100000Y-102600000D03*
D11*
X251600000Y-106400000D03*
%TD*%
%TO.C,S13_L1*%
X204600000Y-89400000D03*
D12*
X205100000Y-94550000D03*
D13*
X210100000Y-83500000D03*
D14*
X210100000Y-89400000D03*
D13*
X215100000Y-85600000D03*
D11*
X215600000Y-89400000D03*
%TD*%
%TO.C,S24_U1*%
X186600000Y-123400000D03*
D12*
X187100000Y-128550000D03*
D13*
X192100000Y-117500000D03*
D14*
X192100000Y-123400000D03*
D13*
X197100000Y-119600000D03*
D11*
X197600000Y-123400000D03*
%TD*%
%TO.C,S18_G1*%
X204600000Y-106400000D03*
D12*
X205100000Y-111550000D03*
D13*
X210100000Y-100500000D03*
D14*
X210100000Y-106400000D03*
D13*
X215100000Y-102600000D03*
D11*
X215600000Y-106400000D03*
%TD*%
%TO.C,S15_D1*%
X168600000Y-89400000D03*
D12*
X169100000Y-94550000D03*
D13*
X174100000Y-83500000D03*
D14*
X174100000Y-89400000D03*
D13*
X179100000Y-85600000D03*
D11*
X179600000Y-89400000D03*
%TD*%
%TO.C,S20_Z1*%
X168600000Y-106400000D03*
D12*
X169100000Y-111550000D03*
D13*
X174100000Y-100500000D03*
D14*
X174100000Y-106400000D03*
D13*
X179100000Y-102600000D03*
D11*
X179600000Y-106400000D03*
%TD*%
%TO.C,S8_W1*%
X84600000Y-106400000D03*
D12*
X85100000Y-111550000D03*
D13*
X90100000Y-100500000D03*
D14*
X90100000Y-106400000D03*
D13*
X95100000Y-102600000D03*
D11*
X95600000Y-106400000D03*
%TD*%
D15*
%TO.C,REF\u002A\u002A*%
X43100000Y-117900000D03*
%TD*%
D11*
%TO.C,S9_R1*%
X102600000Y-106400000D03*
D12*
X103100000Y-111550000D03*
D13*
X108100000Y-100500000D03*
D14*
X108100000Y-106400000D03*
D13*
X113100000Y-102600000D03*
D11*
X113600000Y-106400000D03*
%TD*%
%TO.C,S11_F1*%
X240600000Y-89400000D03*
D12*
X241100000Y-94550000D03*
D13*
X246100000Y-83500000D03*
D14*
X246100000Y-89400000D03*
D13*
X251100000Y-85600000D03*
D11*
X251600000Y-89400000D03*
%TD*%
%TO.C,S21_O1*%
X120600000Y-123400000D03*
D12*
X121100000Y-128550000D03*
D13*
X126100000Y-117500000D03*
D14*
X126100000Y-123400000D03*
D13*
X131100000Y-119600000D03*
D11*
X131600000Y-123400000D03*
%TD*%
%TO.C,S2_T1*%
X66600000Y-89400000D03*
D12*
X67100000Y-94550000D03*
D13*
X72100000Y-83500000D03*
D14*
X72100000Y-89400000D03*
D13*
X77100000Y-85600000D03*
D11*
X77600000Y-89400000D03*
%TD*%
%TO.C,S5_\u002A1*%
X120600000Y-89400000D03*
D12*
X121100000Y-94550000D03*
D13*
X126100000Y-83500000D03*
D14*
X126100000Y-89400000D03*
D13*
X131100000Y-85600000D03*
D11*
X131600000Y-89400000D03*
%TD*%
D15*
%TO.C,REF\u002A\u002A*%
X257100000Y-117900000D03*
%TD*%
D11*
%TO.C,S14_T1*%
X186600000Y-89400000D03*
D12*
X187100000Y-94550000D03*
D13*
X192100000Y-83500000D03*
D14*
X192100000Y-89400000D03*
D13*
X197100000Y-85600000D03*
D11*
X197600000Y-89400000D03*
%TD*%
D16*
%TO.C,J2*%
X152990000Y-81535000D03*
X147210000Y-81535000D03*
D17*
X153300000Y-82675000D03*
X152500000Y-82675000D03*
D18*
X151350000Y-82675000D03*
X150350000Y-82675000D03*
X149850000Y-82675000D03*
X148850000Y-82675000D03*
D17*
X147700000Y-82675000D03*
X146900000Y-82675000D03*
X146900000Y-82675000D03*
X147700000Y-82675000D03*
D18*
X148350000Y-82675000D03*
X149350000Y-82675000D03*
X150850000Y-82675000D03*
X151850000Y-82675000D03*
D17*
X152500000Y-82675000D03*
X153300000Y-82675000D03*
D19*
X154420000Y-82035000D03*
D20*
X154420000Y-77855000D03*
D19*
X145780000Y-82035000D03*
D20*
X145780000Y-77855000D03*
%TD*%
D11*
%TO.C,S19_S1*%
X186600000Y-106400000D03*
D12*
X187100000Y-111550000D03*
D13*
X192100000Y-100500000D03*
D14*
X192100000Y-106400000D03*
D13*
X197100000Y-102600000D03*
D11*
X197600000Y-106400000D03*
%TD*%
%TO.C,S6_S1*%
X48600000Y-106400000D03*
D12*
X49100000Y-111550000D03*
D13*
X54100000Y-100500000D03*
D14*
X54100000Y-106400000D03*
D13*
X59100000Y-102600000D03*
D11*
X59600000Y-106400000D03*
%TD*%
%TO.C,S7_K1*%
X66600000Y-106400000D03*
D12*
X67100000Y-111550000D03*
D13*
X72100000Y-100500000D03*
D14*
X72100000Y-106400000D03*
D13*
X77100000Y-102600000D03*
D11*
X77600000Y-106400000D03*
%TD*%
D15*
%TO.C,REF\u002A\u002A*%
X257100000Y-79900000D03*
%TD*%
%TO.C,REF\u002A\u002A*%
X43100000Y-79900000D03*
%TD*%
D11*
%TO.C,S4_H1*%
X102600000Y-89400000D03*
D12*
X103100000Y-94550000D03*
D13*
X108100000Y-83500000D03*
D14*
X108100000Y-89400000D03*
D13*
X113100000Y-85600000D03*
D11*
X113600000Y-89400000D03*
%TD*%
%TO.C,S22_A1*%
X102600000Y-123400000D03*
D12*
X103100000Y-128550000D03*
D13*
X108100000Y-117500000D03*
D14*
X108100000Y-123400000D03*
D13*
X113100000Y-119600000D03*
D11*
X113600000Y-123400000D03*
%TD*%
%TO.C,S17_B1*%
X222600000Y-106400000D03*
D12*
X223100000Y-111550000D03*
D13*
X228100000Y-100500000D03*
D14*
X228100000Y-106400000D03*
D13*
X233100000Y-102600000D03*
D11*
X233600000Y-106400000D03*
%TD*%
M02*
