M48
; DRILL file KiCad 10.0.3 date 2026-05-31T13:41:55
; FORMAT={-:-/ absolute / metric / decimal}
; #@! TF.CreationDate,2026-05-31T13:41:55-07:00
; #@! TF.GenerationSoftware,Kicad,Pcbnew,10.0.3
; #@! TF.FileFunction,Plated,1,4,PTH
FMAT,2
METRIC
; #@! TA.AperFunction,Plated,PTH,ViaDrill
T1C0.300
; #@! TA.AperFunction,Plated,PTH,ComponentDrill
T2C0.600
; #@! TA.AperFunction,Plated,PTH,ComponentDrill
T3C2.200
%
G90
G05
T1
X66.6Y-92.4
X66.85Y-109.65
X77.6Y-92.4
X78.1Y-109.65
X84.1Y-92.4
X85.1Y-109.4
X95.35Y-92.4
X96.1Y-109.4
X102.35Y-92.4
X103.1Y-109.65
X113.6Y-92.4
X113.85Y-109.65
X120.85Y-92.4
X121.1Y-109.4
X131.85Y-109.4
X132.1Y-92.4
X137.9Y-126.1
X138.7Y-126.1
X139.5Y-126.1
X139.7Y-103.6
X140.3Y-126.1
X140.325Y-97.175
X141.05Y-97.175
X141.075Y-104.95
X141.8Y-97.175
X141.825Y-104.95
X142.55Y-97.175
X142.575Y-104.925
X143.275Y-97.175
X143.325Y-104.925
X143.85Y-84.475
X144.05Y-104.925
X144.225Y-115.075
X144.525Y-84.475
X144.53Y-85.33
X144.8Y-108.5
X145.2Y-84.45
X145.4Y-110.9
X145.925Y-84.425
X146.6Y-120.1
X147.375Y-85.1
X148.35Y-85.8
X149.06Y-115.17
X149.07Y-112.98
X149.1Y-85.1
X149.2Y-106.6
X149.36Y-114.01
X149.6Y-87.675
X149.836Y-119.147
X149.85Y-108.15
X150.05Y-107.35
X150.08Y-114.82
X150.1Y-114.062
X150.12Y-113.2
X150.625Y-86.25
X150.78Y-113.7
X151.05Y-114.44
X151.12Y-112.96
X151.17Y-115.2
X151.664Y-118.716
X152.25Y-85.775
X152.375Y-83.975
X153.2Y-107.2
X153.3Y-84.6
X154.0Y-120.0
X154.105Y-97.275
X154.125Y-84.6
X154.4Y-110.6
X154.8Y-120.0
X154.875Y-84.6
X155.6Y-120.0
X155.625Y-84.6
X155.85Y-115.075
X156.4Y-120.0
X157.3Y-111.2
X157.35Y-109.65
X159.3Y-82.5
X161.5Y-83.7
X164.4Y-90.8
X164.4Y-91.6
X164.4Y-92.4
X164.4Y-93.2
X164.4Y-119.6
X164.4Y-120.3
X164.4Y-121.0
X164.4Y-121.7
X167.6Y-92.4
X168.1Y-98.65
X179.85Y-92.4
X181.35Y-107.4
X186.6Y-109.65
X187.1Y-92.4
X197.35Y-92.4
X197.35Y-109.65
X205.1Y-92.4
X205.1Y-109.65
X215.85Y-92.4
X216.35Y-109.65
X222.6Y-92.4
X222.6Y-109.65
X233.6Y-109.65
X234.1Y-92.4
X241.35Y-92.4
X251.6Y-92.4
T3
X43.1Y-79.9
X43.1Y-117.9
X257.1Y-79.9
X257.1Y-117.9
T2
G00X145.78Y-78.155
M15
G01X145.78Y-77.555
M16
G05
G00X145.78Y-82.585
M15
G01X145.78Y-81.485
M16
G05
G00X154.42Y-78.155
M15
G01X154.42Y-77.555
M16
G05
G00X154.42Y-82.585
M15
G01X154.42Y-81.485
M16
G05
M30
