%TF.GenerationSoftware,KiCad,Pcbnew,10.0.3*%
%TF.CreationDate,2026-05-31T13:41:57-07:00*%
%TF.ProjectId,steno,7374656e-6f2e-46b6-9963-61645f706362,rev?*%
%TF.SameCoordinates,Original*%
%TF.FileFunction,Profile,NP*%
%FSLAX46Y46*%
G04 Gerber Fmt 4.6, Leading zero omitted, Abs format (unit mm)*
G04 Created by KiCad (PCBNEW 10.0.3) date 2026-05-31 13:41:57*
%MOMM*%
%LPD*%
G01*
G04 APERTURE LIST*
%TA.AperFunction,Profile*%
%ADD10C,0.050000*%
%TD*%
%ADD11C,0.050000*%
G04 APERTURE END LIST*
D10*
X40100000Y-76900000D02*
X260100000Y-76900000D01*
X40100000Y-120900000D02*
X40100000Y-76900000D01*
D11*
X99100000Y-135900000D02*
X98994940Y-135724905D01*
X98890682Y-135551177D01*
X98787207Y-135378812D01*
X98684492Y-135207804D01*
X98582516Y-135038148D01*
X98531799Y-134953825D01*
X98481259Y-134869839D01*
X98430894Y-134786187D01*
X98380700Y-134702870D01*
X98330675Y-134619887D01*
X98280817Y-134537238D01*
X98231122Y-134454920D01*
X98181589Y-134372935D01*
X98132214Y-134291281D01*
X98082995Y-134209958D01*
X98033929Y-134128965D01*
X97985014Y-134048300D01*
X97936246Y-133967965D01*
X97887624Y-133887957D01*
X97839145Y-133808277D01*
X97790806Y-133728923D01*
X97742604Y-133649895D01*
X97694537Y-133571192D01*
X97646602Y-133492813D01*
X97598797Y-133414759D01*
X97551119Y-133337028D01*
X97503564Y-133259619D01*
X97456132Y-133182532D01*
X97408818Y-133105767D01*
X97361621Y-133029322D01*
X97314537Y-132953196D01*
X97267565Y-132877390D01*
X97220700Y-132801903D01*
X97173942Y-132726733D01*
X97150601Y-132689267D01*
X97127287Y-132651881D01*
X97103997Y-132614573D01*
X97080732Y-132577345D01*
X97057491Y-132540195D01*
X97034275Y-132503124D01*
X97011082Y-132466133D01*
X96987913Y-132429219D01*
X96964767Y-132392385D01*
X96941644Y-132355629D01*
X96918543Y-132318951D01*
X96895465Y-132282352D01*
X96872408Y-132245831D01*
X96849373Y-132209389D01*
X96826359Y-132173024D01*
X96803365Y-132136737D01*
X96780393Y-132100529D01*
X96757440Y-132064398D01*
X96734508Y-132028345D01*
X96711594Y-131992370D01*
X96688700Y-131956472D01*
X96665825Y-131920652D01*
X96642969Y-131884910D01*
X96620130Y-131849244D01*
X96597310Y-131813656D01*
X96574507Y-131778146D01*
X96551721Y-131742712D01*
X96528952Y-131707355D01*
X96506200Y-131672076D01*
X96483464Y-131636873D01*
X96460744Y-131601747D01*
X96438039Y-131566697D01*
X96415350Y-131531725D01*
X96392675Y-131496828D01*
X96370015Y-131462009D01*
X96347369Y-131427265D01*
X96324738Y-131392598D01*
X96302119Y-131358007D01*
X96279514Y-131323492D01*
X96256922Y-131289053D01*
X96234343Y-131254691D01*
X96211776Y-131220404D01*
X96189221Y-131186192D01*
X96166677Y-131152057D01*
X96144145Y-131117997D01*
X96121623Y-131084012D01*
X96099113Y-131050103D01*
X96076612Y-131016270D01*
X96054122Y-130982511D01*
X96031641Y-130948828D01*
X96009169Y-130915220D01*
X95986706Y-130881687D01*
X95964252Y-130848229D01*
X95941807Y-130814846D01*
X95919369Y-130781537D01*
X95896939Y-130748303D01*
X95874516Y-130715144D01*
X95852100Y-130682059D01*
X95829691Y-130649049D01*
X95807289Y-130616113D01*
X95784892Y-130583251D01*
X95762501Y-130550464D01*
X95740115Y-130517750D01*
X95717734Y-130485111D01*
X95695358Y-130452545D01*
X95672987Y-130420054D01*
X95650619Y-130387636D01*
X95628255Y-130355292D01*
X95605894Y-130323021D01*
X95583537Y-130290824D01*
X95561182Y-130258700D01*
X95538829Y-130226650D01*
X95516479Y-130194673D01*
X95494130Y-130162769D01*
X95471783Y-130130938D01*
X95449437Y-130099181D01*
X95427091Y-130067496D01*
X95404746Y-130035884D01*
X95382401Y-130004344D01*
X95360055Y-129972878D01*
X95337709Y-129941484D01*
X95315363Y-129910162D01*
X95293014Y-129878913D01*
X95270665Y-129847737D01*
X95248313Y-129816632D01*
X95225959Y-129785600D01*
X95203603Y-129754639D01*
X95181243Y-129723751D01*
X95158881Y-129692935D01*
X95136515Y-129662190D01*
X95114145Y-129631518D01*
X95091771Y-129600917D01*
X95069392Y-129570387D01*
X95047008Y-129539929D01*
X95024619Y-129509542D01*
X95002225Y-129479227D01*
X94979825Y-129448983D01*
X94957418Y-129418810D01*
X94935005Y-129388708D01*
X94912585Y-129358678D01*
X94890158Y-129328718D01*
X94867724Y-129298829D01*
X94845281Y-129269011D01*
X94822831Y-129239263D01*
X94800372Y-129209586D01*
X94777904Y-129179979D01*
X94755427Y-129150443D01*
X94732940Y-129120977D01*
X94710444Y-129091582D01*
X94687937Y-129062256D01*
X94665420Y-129033001D01*
X94642892Y-129003815D01*
X94620353Y-128974700D01*
X94597803Y-128945654D01*
X94575240Y-128916678D01*
X94552666Y-128887772D01*
X94530079Y-128858935D01*
X94507480Y-128830168D01*
X94484867Y-128801470D01*
X94462241Y-128772842D01*
X94439601Y-128744283D01*
X94416947Y-128715793D01*
X94394278Y-128687372D01*
X94371595Y-128659019D01*
X94348896Y-128630736D01*
X94326182Y-128602522D01*
X94303453Y-128574376D01*
X94280707Y-128546299D01*
X94257945Y-128518291D01*
X94235166Y-128490351D01*
X94212370Y-128462480D01*
X94189557Y-128434676D01*
X94166726Y-128406941D01*
X94143877Y-128379275D01*
X94121009Y-128351676D01*
X94098123Y-128324145D01*
X94075218Y-128296682D01*
X94052293Y-128269287D01*
X94029349Y-128241960D01*
X94006384Y-128214700D01*
X93983399Y-128187508D01*
X93960394Y-128160383D01*
X93937367Y-128133326D01*
X93914319Y-128106336D01*
X93891250Y-128079413D01*
X93868158Y-128052557D01*
X93845044Y-128025769D01*
X93821907Y-127999047D01*
X93798748Y-127972392D01*
X93775565Y-127945805D01*
X93752358Y-127919283D01*
X93729127Y-127892829D01*
X93705872Y-127866441D01*
X93682592Y-127840119D01*
X93659288Y-127813864D01*
X93635958Y-127787675D01*
X93612602Y-127761553D01*
X93589221Y-127735496D01*
X93565813Y-127709506D01*
X93542378Y-127683581D01*
X93518917Y-127657723D01*
X93495428Y-127631930D01*
X93471911Y-127606203D01*
X93448367Y-127580541D01*
X93424794Y-127554945D01*
X93401193Y-127529415D01*
X93377563Y-127503950D01*
X93353903Y-127478550D01*
X93330214Y-127453215D01*
X93306495Y-127427946D01*
X93282745Y-127402742D01*
X93258966Y-127377602D01*
X93235155Y-127352528D01*
X93211313Y-127327518D01*
X93187439Y-127302573D01*
X93163533Y-127277692D01*
X93139595Y-127252876D01*
X93115625Y-127228125D01*
X93091622Y-127203438D01*
X93067585Y-127178815D01*
X93043515Y-127154257D01*
X93019411Y-127129762D01*
X92995273Y-127105332D01*
X92971100Y-127080965D01*
X92946892Y-127056663D01*
X92922649Y-127032424D01*
X92898371Y-127008249D01*
X92874057Y-126984137D01*
X92849706Y-126960089D01*
X92825319Y-126936105D01*
X92800895Y-126912184D01*
X92776434Y-126888326D01*
X92751936Y-126864531D01*
X92727399Y-126840800D01*
X92702825Y-126817131D01*
X92678212Y-126793526D01*
X92653560Y-126769983D01*
X92628869Y-126746503D01*
X92604138Y-126723086D01*
X92579368Y-126699731D01*
X92554557Y-126676439D01*
X92529706Y-126653210D01*
X92504814Y-126630042D01*
X92479881Y-126606937D01*
X92454907Y-126583895D01*
X92429890Y-126560914D01*
X92404832Y-126537995D01*
X92379731Y-126515139D01*
X92354587Y-126492344D01*
X92329401Y-126469611D01*
X92304170Y-126446939D01*
X92278896Y-126424329D01*
X92253578Y-126401781D01*
X92228216Y-126379294D01*
X92202808Y-126356869D01*
X92177356Y-126334505D01*
X92151858Y-126312202D01*
X92126314Y-126289960D01*
X92100725Y-126267779D01*
X92075088Y-126245659D01*
X92049405Y-126223600D01*
X92023675Y-126201602D01*
X91997898Y-126179664D01*
X91972073Y-126157787D01*
X91946200Y-126135970D01*
X91920278Y-126114214D01*
X91894308Y-126092519D01*
X91868288Y-126070883D01*
X91842220Y-126049308D01*
X91816101Y-126027793D01*
X91789933Y-126006337D01*
X91763714Y-125984942D01*
X91737444Y-125963607D01*
X91711124Y-125942331D01*
X91684752Y-125921115D01*
X91658328Y-125899959D01*
X91631852Y-125878862D01*
X91605324Y-125857825D01*
X91578743Y-125836847D01*
X91552110Y-125815928D01*
X91525422Y-125795068D01*
X91498682Y-125774268D01*
X91471887Y-125753526D01*
X91445038Y-125732843D01*
X91431593Y-125722524D01*
X91418134Y-125712220D01*
X91404661Y-125701930D01*
X91391175Y-125691655D01*
X91377675Y-125681394D01*
X91364161Y-125671148D01*
X91350633Y-125660917D01*
X91337091Y-125650701D01*
X91323536Y-125640499D01*
X91309966Y-125630311D01*
X91296382Y-125620139D01*
X91282784Y-125609980D01*
X91269171Y-125599837D01*
X91255545Y-125589708D01*
X91241904Y-125579594D01*
X91228249Y-125569494D01*
X91214580Y-125559408D01*
X91200896Y-125549338D01*
X91187198Y-125539281D01*
X91173486Y-125529240D01*
X91159759Y-125519213D01*
X91146017Y-125509200D01*
X91132261Y-125499202D01*
X91118490Y-125489218D01*
X91104705Y-125479248D01*
X91090905Y-125469293D01*
X91077090Y-125459353D01*
X91063261Y-125449427D01*
X91049416Y-125439515D01*
X91035557Y-125429618D01*
X91021683Y-125419735D01*
X91007794Y-125409867D01*
X90993890Y-125400013D01*
X90979971Y-125390173D01*
X90966036Y-125380348D01*
X90952087Y-125370537D01*
X90938123Y-125360740D01*
X90924143Y-125350958D01*
X90910148Y-125341190D01*
X90896138Y-125331436D01*
X90882113Y-125321697D01*
X90868072Y-125311972D01*
X90854016Y-125302261D01*
X90839944Y-125292564D01*
X90825857Y-125282882D01*
X90811754Y-125273214D01*
X90797636Y-125263560D01*
X90783502Y-125253920D01*
X90769353Y-125244295D01*
X90755188Y-125234684D01*
X90741007Y-125225086D01*
X90726810Y-125215504D01*
X90712598Y-125205935D01*
X90698370Y-125196380D01*
X90684125Y-125186840D01*
X90669865Y-125177313D01*
X90655589Y-125167801D01*
X90641297Y-125158303D01*
X90626989Y-125148819D01*
X90612665Y-125139349D01*
X90598324Y-125129894D01*
X90583968Y-125120452D01*
X90569595Y-125111024D01*
X90555206Y-125101611D01*
X90540801Y-125092211D01*
X90526379Y-125082825D01*
X90511941Y-125073454D01*
X90497487Y-125064096D01*
X90483016Y-125054753D01*
X90468528Y-125045423D01*
X90454024Y-125036108D01*
X90439503Y-125026806D01*
X90424966Y-125017519D01*
X90410412Y-125008245D01*
X90395842Y-124998985D01*
X90381254Y-124989739D01*
X90366650Y-124980507D01*
X90352029Y-124971289D01*
X90337391Y-124962085D01*
X90322736Y-124952895D01*
X90308065Y-124943719D01*
X90293376Y-124934556D01*
X90278670Y-124925408D01*
X90263947Y-124916273D01*
X90249207Y-124907152D01*
X90234450Y-124898045D01*
X90219675Y-124888951D01*
X90204884Y-124879872D01*
X90190075Y-124870806D01*
X90175248Y-124861754D01*
X90160405Y-124852716D01*
X90145544Y-124843691D01*
X90130665Y-124834681D01*
X90115769Y-124825684D01*
X90100856Y-124816700D01*
X90085924Y-124807731D01*
X90070976Y-124798775D01*
X90056009Y-124789833D01*
X90041025Y-124780904D01*
X90026023Y-124771990D01*
X90011003Y-124763088D01*
X89995966Y-124754201D01*
X89980910Y-124745327D01*
X89965837Y-124736467D01*
X89950746Y-124727620D01*
X89935637Y-124718787D01*
X89920509Y-124709968D01*
X89905364Y-124701162D01*
X89890201Y-124692370D01*
X89875019Y-124683591D01*
X89859819Y-124674826D01*
X89844601Y-124666075D01*
X89829365Y-124657337D01*
X89814110Y-124648612D01*
X89798837Y-124639901D01*
X89783546Y-124631204D01*
X89768236Y-124622520D01*
X89752908Y-124613850D01*
X89737561Y-124605193D01*
X89722195Y-124596549D01*
X89706811Y-124587919D01*
X89691408Y-124579302D01*
X89675987Y-124570699D01*
X89660547Y-124562109D01*
X89645088Y-124553533D01*
X89629610Y-124544970D01*
X89614114Y-124536420D01*
X89598598Y-124527884D01*
X89583064Y-124519361D01*
X89567510Y-124510852D01*
X89551938Y-124502356D01*
X89536346Y-124493873D01*
X89520736Y-124485404D01*
X89505106Y-124476947D01*
X89489457Y-124468505D01*
X89473789Y-124460075D01*
X89458101Y-124451659D01*
X89442395Y-124443256D01*
X89426669Y-124434866D01*
X89410923Y-124426490D01*
X89395158Y-124418127D01*
X89379374Y-124409777D01*
X89363570Y-124401440D01*
X89347746Y-124393116D01*
X89331903Y-124384806D01*
X89316041Y-124376509D01*
X89300158Y-124368225D01*
X89284256Y-124359954D01*
X89268334Y-124351696D01*
X89252392Y-124343452D01*
X89236431Y-124335220D01*
X89220449Y-124327002D01*
X89204448Y-124318797D01*
X89188427Y-124310605D01*
X89172385Y-124302426D01*
X89156324Y-124294260D01*
X89140243Y-124286108D01*
X89124141Y-124277968D01*
X89108019Y-124269841D01*
X89091877Y-124261728D01*
X89075715Y-124253627D01*
X89059532Y-124245540D01*
X89043329Y-124237465D01*
X89027106Y-124229404D01*
X89010862Y-124221355D01*
X88994598Y-124213320D01*
X88978313Y-124205297D01*
X88962008Y-124197287D01*
X88945682Y-124189291D01*
X88929336Y-124181307D01*
X88912969Y-124173336D01*
X88896581Y-124165378D01*
X88880172Y-124157434D01*
X88863743Y-124149501D01*
X88847293Y-124141582D01*
X88830821Y-124133676D01*
X88814329Y-124125783D01*
X88797816Y-124117902D01*
X88781282Y-124110034D01*
X88764727Y-124102179D01*
X88748151Y-124094337D01*
X88731554Y-124086508D01*
X88714936Y-124078692D01*
X88698296Y-124070888D01*
X88681635Y-124063097D01*
X88664953Y-124055319D01*
X88648250Y-124047554D01*
X88631525Y-124039801D01*
X88614778Y-124032061D01*
X88598011Y-124024334D01*
X88581221Y-124016620D01*
X88564411Y-124008918D01*
X88547578Y-124001229D01*
X88530724Y-123993553D01*
X88513849Y-123985889D01*
X88496951Y-123978238D01*
X88480032Y-123970600D01*
X88463092Y-123962974D01*
X88446129Y-123955361D01*
X88429144Y-123947761D01*
X88412138Y-123940173D01*
X88395110Y-123932598D01*
X88378059Y-123925035D01*
X88360987Y-123917485D01*
X88343892Y-123909948D01*
X88326776Y-123902423D01*
X88309637Y-123894911D01*
X88292476Y-123887411D01*
X88275293Y-123879924D01*
X88258087Y-123872449D01*
X88240860Y-123864987D01*
X88223609Y-123857537D01*
X88206337Y-123850100D01*
X88189042Y-123842675D01*
X88171724Y-123835263D01*
X88154384Y-123827863D01*
X88137022Y-123820475D01*
X88119637Y-123813101D01*
X88102229Y-123805738D01*
X88084798Y-123798388D01*
X88067345Y-123791050D01*
X88049869Y-123783725D01*
X88032370Y-123776412D01*
X88014849Y-123769111D01*
X87997304Y-123761823D01*
X87979737Y-123754547D01*
X87962146Y-123747284D01*
X87944533Y-123740033D01*
X87926896Y-123732794D01*
X87909236Y-123725568D01*
X87891553Y-123718353D01*
X87873847Y-123711151D01*
X87856118Y-123703962D01*
X87838366Y-123696784D01*
X87820590Y-123689619D01*
X87802791Y-123682466D01*
X87784968Y-123675326D01*
X87767122Y-123668197D01*
X87749253Y-123661081D01*
X87731360Y-123653977D01*
X87713443Y-123646885D01*
X87695503Y-123639806D01*
X87659552Y-123625683D01*
X87623506Y-123611609D01*
X87587364Y-123597584D01*
X87551128Y-123583606D01*
X87514795Y-123569678D01*
X87478366Y-123555797D01*
X87441841Y-123541965D01*
X87405218Y-123528181D01*
X87368499Y-123514445D01*
X87331682Y-123500757D01*
X87294767Y-123487116D01*
X87257754Y-123473524D01*
X87220642Y-123459979D01*
X87183432Y-123446482D01*
X87146122Y-123433032D01*
X87108713Y-123419630D01*
X87071204Y-123406275D01*
X87033595Y-123392967D01*
X86995886Y-123379707D01*
X86958075Y-123366493D01*
X86920164Y-123353327D01*
X86882151Y-123340208D01*
X86844036Y-123327135D01*
X86805819Y-123314110D01*
X86767500Y-123301130D01*
X86729077Y-123288198D01*
X86690552Y-123275312D01*
X86651923Y-123262473D01*
X86613191Y-123249679D01*
X86574354Y-123236933D01*
X86535413Y-123224232D01*
X86496367Y-123211577D01*
X86457216Y-123198969D01*
X86417960Y-123186406D01*
X86378597Y-123173889D01*
X86339129Y-123161418D01*
X86299554Y-123148993D01*
X86259873Y-123136613D01*
X86220084Y-123124279D01*
X86180188Y-123111990D01*
X86140185Y-123099747D01*
X86100073Y-123087548D01*
X86059853Y-123075395D01*
X86019524Y-123063288D01*
X85979086Y-123051225D01*
X85938539Y-123039207D01*
X85897882Y-123027233D01*
X85857114Y-123015305D01*
X85816237Y-123003421D01*
X85775249Y-122991582D01*
X85734150Y-122979788D01*
X85692939Y-122968037D01*
X85651617Y-122956332D01*
X85610182Y-122944670D01*
X85568636Y-122933053D01*
X85526976Y-122921479D01*
X85485204Y-122909950D01*
X85443318Y-122898465D01*
X85401319Y-122887023D01*
X85359205Y-122875625D01*
X85316978Y-122864271D01*
X85274635Y-122852961D01*
X85232178Y-122841693D01*
X85189605Y-122830470D01*
X85146917Y-122819290D01*
X85104112Y-122808152D01*
X85061192Y-122797059D01*
X85018154Y-122786008D01*
X84975000Y-122775000D01*
X84931728Y-122764035D01*
X84888339Y-122753113D01*
X84844832Y-122742234D01*
X84801207Y-122731397D01*
X84757462Y-122720603D01*
X84713599Y-122709851D01*
X84669617Y-122699142D01*
X84625515Y-122688476D01*
X84581293Y-122677851D01*
X84536951Y-122667269D01*
X84492488Y-122656728D01*
X84447905Y-122646230D01*
X84403200Y-122635773D01*
X84358373Y-122625359D01*
X84313425Y-122614986D01*
X84268354Y-122604655D01*
X84223161Y-122594365D01*
X84177845Y-122584117D01*
X84132405Y-122573910D01*
X84086842Y-122563745D01*
X84041155Y-122553621D01*
X83995344Y-122543538D01*
X83949409Y-122533496D01*
X83903348Y-122523495D01*
X83857162Y-122513535D01*
X83810851Y-122503615D01*
X83764414Y-122493737D01*
X83717850Y-122483899D01*
X83671161Y-122474102D01*
X83624344Y-122464345D01*
X83577400Y-122454628D01*
X83530328Y-122444952D01*
X83483129Y-122435317D01*
X83435802Y-122425721D01*
X83388345Y-122416165D01*
X83340761Y-122406650D01*
X83293047Y-122397174D01*
X83245203Y-122387738D01*
X83197230Y-122378342D01*
X83149126Y-122368985D01*
X83100892Y-122359668D01*
X83052527Y-122350391D01*
X83004031Y-122341152D01*
X82955404Y-122331954D01*
X82906645Y-122322794D01*
X82857753Y-122313674D01*
X82808729Y-122304592D01*
X82759573Y-122295550D01*
X82710283Y-122286546D01*
X82660860Y-122277582D01*
X82611302Y-122268656D01*
X82561611Y-122259768D01*
X82511786Y-122250919D01*
X82461825Y-122242109D01*
X82411730Y-122233337D01*
X82361499Y-122224604D01*
X82311132Y-122215908D01*
X82260629Y-122207251D01*
X82209990Y-122198632D01*
X82159214Y-122190050D01*
X82108301Y-122181507D01*
X82057251Y-122173002D01*
X82006063Y-122164534D01*
X81954736Y-122156104D01*
X81903272Y-122147711D01*
X81851668Y-122139356D01*
X81799926Y-122131038D01*
X81748044Y-122122757D01*
X81696022Y-122114514D01*
X81643861Y-122106308D01*
X81591559Y-122098139D01*
X81539116Y-122090007D01*
X81486532Y-122081911D01*
X81433807Y-122073853D01*
X81380940Y-122065831D01*
X81327931Y-122057846D01*
X81274780Y-122049898D01*
X81221486Y-122041985D01*
X81168049Y-122034110D01*
X81114469Y-122026270D01*
X81060745Y-122018467D01*
X81006877Y-122010700D01*
X80952865Y-122002969D01*
X80898708Y-121995274D01*
X80844406Y-121987615D01*
X80789959Y-121979991D01*
X80735366Y-121972403D01*
X80680627Y-121964851D01*
X80625742Y-121957335D01*
X80570710Y-121949854D01*
X80515531Y-121942408D01*
X80460205Y-121934997D01*
X80404731Y-121927622D01*
X80349109Y-121920282D01*
X80293339Y-121912977D01*
X80237421Y-121905707D01*
X80181353Y-121898472D01*
X80125136Y-121891271D01*
X80068770Y-121884105D01*
X80012253Y-121876974D01*
X79955586Y-121869877D01*
X79898769Y-121862815D01*
X79841801Y-121855787D01*
X79784681Y-121848794D01*
X79727410Y-121841835D01*
X79669987Y-121834909D01*
X79612412Y-121828018D01*
X79554684Y-121821161D01*
X79496803Y-121814337D01*
X79438769Y-121807548D01*
X79380582Y-121800792D01*
X79322240Y-121794070D01*
X79263745Y-121787381D01*
X79205095Y-121780726D01*
X79146289Y-121774104D01*
X79087329Y-121767515D01*
X79028213Y-121760959D01*
X78968941Y-121754437D01*
X78909513Y-121747948D01*
X78849929Y-121741491D01*
X78790188Y-121735068D01*
X78730289Y-121728677D01*
X78670233Y-121722319D01*
X78610019Y-121715993D01*
X78549647Y-121709700D01*
X78489116Y-121703440D01*
X78428427Y-121697212D01*
X78367578Y-121691016D01*
X78306570Y-121684852D01*
X78245402Y-121678720D01*
X78184074Y-121672621D01*
X78122585Y-121666553D01*
X78060936Y-121660517D01*
X77999125Y-121654513D01*
X77937153Y-121648541D01*
X77875019Y-121642600D01*
X77812723Y-121636691D01*
X77750265Y-121630813D01*
X77687643Y-121624966D01*
X77624859Y-121619151D01*
X77561911Y-121613367D01*
X77498799Y-121607614D01*
X77435524Y-121601892D01*
X77372083Y-121596201D01*
X77308478Y-121590541D01*
X77244708Y-121584912D01*
X77180773Y-121579313D01*
X77116671Y-121573745D01*
X77052404Y-121568207D01*
X76987970Y-121562700D01*
X76923369Y-121557223D01*
X76858602Y-121551777D01*
X76793667Y-121546360D01*
X76728564Y-121540974D01*
X76663293Y-121535618D01*
X76597853Y-121530291D01*
X76532245Y-121524995D01*
X76466468Y-121519728D01*
X76400522Y-121514491D01*
X76334406Y-121509283D01*
X76268119Y-121504105D01*
X76201663Y-121498957D01*
X76135035Y-121493838D01*
X76068237Y-121488748D01*
X76001267Y-121483687D01*
X75934125Y-121478655D01*
X75866812Y-121473652D01*
X75799326Y-121468678D01*
X75731667Y-121463733D01*
X75663836Y-121458817D01*
X75595831Y-121453930D01*
X75527652Y-121449071D01*
X75459300Y-121444240D01*
X75390773Y-121439438D01*
X75322071Y-121434664D01*
X75253194Y-121429919D01*
X75184142Y-121425201D01*
X75114915Y-121420512D01*
X75045511Y-121415851D01*
X74975931Y-121411217D01*
X74906175Y-121406612D01*
X74836241Y-121402034D01*
X74766130Y-121397484D01*
X74695842Y-121392961D01*
X74625375Y-121388466D01*
X74554731Y-121383999D01*
X74483907Y-121379558D01*
X74412905Y-121375145D01*
X74341723Y-121370759D01*
X74270362Y-121366400D01*
X74198821Y-121362069D01*
X74127100Y-121357764D01*
X74055198Y-121353486D01*
X73983115Y-121349234D01*
X73910850Y-121345009D01*
X73838405Y-121340811D01*
X73765777Y-121336640D01*
X73692967Y-121332494D01*
X73619974Y-121328375D01*
X73546799Y-121324283D01*
X73473440Y-121320216D01*
X73399898Y-121316175D01*
X73326172Y-121312161D01*
X73252261Y-121308172D01*
X73178166Y-121304209D01*
X73103886Y-121300272D01*
X73029421Y-121296361D01*
X72954771Y-121292475D01*
X72879934Y-121288615D01*
X72804911Y-121284780D01*
X72729702Y-121280970D01*
X72654306Y-121277186D01*
X72578723Y-121273426D01*
X72502952Y-121269692D01*
X72426993Y-121265983D01*
X72350846Y-121262298D01*
X72274511Y-121258639D01*
X72197987Y-121255004D01*
X72121273Y-121251394D01*
X72044370Y-121247808D01*
X71967278Y-121244247D01*
X71889995Y-121240710D01*
X71812521Y-121237198D01*
X71734857Y-121233710D01*
X71657002Y-121230246D01*
X71578955Y-121226806D01*
X71500716Y-121223390D01*
X71422285Y-121219997D01*
X71343662Y-121216629D01*
X71264846Y-121213284D01*
X71185837Y-121209963D01*
X71106634Y-121206666D01*
X71027238Y-121203392D01*
X70947647Y-121200141D01*
X70867862Y-121196914D01*
X70787882Y-121193710D01*
X70707707Y-121190529D01*
X70627337Y-121187371D01*
X70546771Y-121184236D01*
X70466009Y-121181124D01*
X70385050Y-121178035D01*
X70303895Y-121174968D01*
X70222542Y-121171924D01*
X70140992Y-121168903D01*
X70059245Y-121165904D01*
X69977299Y-121162928D01*
X69895155Y-121159973D01*
X69812812Y-121157041D01*
X69730270Y-121154132D01*
X69647529Y-121151244D01*
X69564588Y-121148378D01*
X69481447Y-121145534D01*
X69398105Y-121142712D01*
X69314563Y-121139911D01*
X69230820Y-121137132D01*
X69146875Y-121134375D01*
X69062729Y-121131639D01*
X68978380Y-121128925D01*
X68893830Y-121126231D01*
X68809076Y-121123559D01*
X68724120Y-121120909D01*
X68638960Y-121118279D01*
X68553597Y-121115670D01*
X68468029Y-121113082D01*
X68382257Y-121110515D01*
X68296281Y-121107968D01*
X68210099Y-121105442D01*
X68123713Y-121102937D01*
X68037120Y-121100452D01*
X67950322Y-121097987D01*
X67863317Y-121095543D01*
X67776105Y-121093119D01*
X67688687Y-121090715D01*
X67601061Y-121088331D01*
X67513228Y-121085967D01*
X67425187Y-121083623D01*
X67336937Y-121081299D01*
X67248479Y-121078994D01*
X67159812Y-121076709D01*
X67070935Y-121074444D01*
X66981849Y-121072198D01*
X66892553Y-121069971D01*
X66803047Y-121067764D01*
X66713330Y-121065575D01*
X66623402Y-121063406D01*
X66533263Y-121061256D01*
X66442912Y-121059125D01*
X66352350Y-121057013D01*
X66261575Y-121054919D01*
X66170588Y-121052845D01*
X66079387Y-121050788D01*
X65987974Y-121048751D01*
X65896346Y-121046732D01*
X65804505Y-121044731D01*
X65712450Y-121042748D01*
X65620180Y-121040784D01*
X65527695Y-121038837D01*
X65434996Y-121036909D01*
X65342080Y-121034999D01*
X65248949Y-121033106D01*
X65155601Y-121031232D01*
X65062037Y-121029375D01*
X64968256Y-121027535D01*
X64874258Y-121025713D01*
X64780042Y-121023909D01*
X64685608Y-121022122D01*
X64590957Y-121020352D01*
X64496086Y-121018599D01*
X64400997Y-121016864D01*
X64305689Y-121015145D01*
X64210161Y-121013443D01*
X64114413Y-121011759D01*
X64018446Y-121010091D01*
X63922257Y-121008439D01*
X63825848Y-121006805D01*
X63729218Y-121005186D01*
X63632366Y-121003585D01*
X63535292Y-121001999D01*
X63340479Y-120998877D01*
X63144773Y-120995819D01*
X62948174Y-120992825D01*
X62750679Y-120989894D01*
X62552284Y-120987025D01*
X62352988Y-120984218D01*
X62152787Y-120981472D01*
X61951679Y-120978786D01*
X61749662Y-120976160D01*
X61546732Y-120973593D01*
X61342888Y-120971085D01*
X61138125Y-120968634D01*
X60932443Y-120966240D01*
X60725837Y-120963902D01*
X60518307Y-120961620D01*
X60309848Y-120959393D01*
X60100458Y-120957220D01*
X59890135Y-120955101D01*
X59678875Y-120953035D01*
X59466677Y-120951022D01*
X59253538Y-120949059D01*
X59039455Y-120947148D01*
X58824425Y-120945287D01*
X58608446Y-120943476D01*
X58391515Y-120941714D01*
X58173630Y-120940000D01*
X57954787Y-120938333D01*
X57734985Y-120936714D01*
X57514220Y-120935141D01*
X57292491Y-120933613D01*
X57069793Y-120932130D01*
X56846125Y-120930692D01*
X56621484Y-120929297D01*
X56395868Y-120927945D01*
X56169273Y-120926635D01*
X55941698Y-120925367D01*
X55713139Y-120924140D01*
X55483593Y-120922953D01*
X55253059Y-120921805D01*
X55021534Y-120920697D01*
X54789014Y-120919627D01*
X54555498Y-120918594D01*
X54320983Y-120917598D01*
X54085465Y-120916638D01*
X53848943Y-120915714D01*
X53611413Y-120914825D01*
X53372874Y-120913970D01*
X53133322Y-120913148D01*
X52892755Y-120912360D01*
X52651170Y-120911603D01*
X52408565Y-120910878D01*
X52164937Y-120910184D01*
X51920282Y-120909520D01*
X51674600Y-120908886D01*
X51427887Y-120908280D01*
X51180139Y-120907703D01*
X50931356Y-120907153D01*
X50681534Y-120906629D01*
X50430670Y-120906132D01*
X50178762Y-120905661D01*
X49925807Y-120905214D01*
X49671803Y-120904792D01*
X49416746Y-120904393D01*
X49160635Y-120904016D01*
X48903467Y-120903662D01*
X48645238Y-120903329D01*
X48385947Y-120903017D01*
X48125591Y-120902726D01*
X47864166Y-120902453D01*
X47338103Y-120901964D01*
X46807737Y-120901545D01*
X46273046Y-120901190D01*
X45734010Y-120900894D01*
X45190607Y-120900652D01*
X44642816Y-120900458D01*
X44090617Y-120900307D01*
X43533987Y-120900193D01*
X42972907Y-120900112D01*
X42407354Y-120900057D01*
X41262748Y-120900007D01*
X40100000Y-120900000D01*
D10*
X201100000Y-135900000D02*
X99100000Y-135900000D01*
D11*
X201100000Y-135900000D02*
X201206228Y-135726072D01*
X201311643Y-135553502D01*
X201416268Y-135382286D01*
X201520123Y-135212418D01*
X201623229Y-135043893D01*
X201674507Y-134960132D01*
X201725607Y-134876705D01*
X201776530Y-134793611D01*
X201827279Y-134710849D01*
X201877857Y-134628419D01*
X201928265Y-134546320D01*
X201978508Y-134464551D01*
X202028588Y-134383111D01*
X202078506Y-134302001D01*
X202128266Y-134221219D01*
X202177871Y-134140765D01*
X202227323Y-134060637D01*
X202276625Y-133980836D01*
X202325779Y-133901360D01*
X202374788Y-133822210D01*
X202423655Y-133743383D01*
X202472382Y-133664881D01*
X202520972Y-133586701D01*
X202569427Y-133508843D01*
X202617751Y-133431307D01*
X202665946Y-133354092D01*
X202714014Y-133277197D01*
X202761958Y-133200622D01*
X202809781Y-133124366D01*
X202857485Y-133048428D01*
X202905073Y-132972807D01*
X202952548Y-132897503D01*
X202999913Y-132822516D01*
X203047169Y-132747844D01*
X203070758Y-132710626D01*
X203094320Y-132673487D01*
X203117857Y-132636426D01*
X203141368Y-132599444D01*
X203164854Y-132562541D01*
X203188316Y-132525715D01*
X203211753Y-132488968D01*
X203235166Y-132452299D01*
X203258556Y-132415708D01*
X203281922Y-132379195D01*
X203305265Y-132342759D01*
X203328585Y-132306402D01*
X203351883Y-132270122D01*
X203375159Y-132233920D01*
X203398413Y-132197796D01*
X203421646Y-132161749D01*
X203444857Y-132125779D01*
X203468048Y-132089886D01*
X203491219Y-132054071D01*
X203514369Y-132018333D01*
X203537499Y-131982672D01*
X203560611Y-131947088D01*
X203583703Y-131911581D01*
X203606776Y-131876151D01*
X203629831Y-131840797D01*
X203652867Y-131805520D01*
X203675886Y-131770319D01*
X203698888Y-131735195D01*
X203721872Y-131700148D01*
X203744840Y-131665176D01*
X203767791Y-131630281D01*
X203790726Y-131595462D01*
X203813645Y-131560719D01*
X203836549Y-131526052D01*
X203859437Y-131491461D01*
X203882311Y-131456946D01*
X203905170Y-131422506D01*
X203928015Y-131388142D01*
X203950846Y-131353853D01*
X203973664Y-131319640D01*
X203996469Y-131285502D01*
X204019261Y-131251440D01*
X204042040Y-131217453D01*
X204064807Y-131183541D01*
X204087562Y-131149704D01*
X204110306Y-131115941D01*
X204133038Y-131082254D01*
X204155760Y-131048642D01*
X204178471Y-131015104D01*
X204201172Y-130981641D01*
X204223863Y-130948252D01*
X204246544Y-130914938D01*
X204269217Y-130881698D01*
X204291880Y-130848532D01*
X204314535Y-130815441D01*
X204337182Y-130782424D01*
X204359820Y-130749480D01*
X204382452Y-130716611D01*
X204405075Y-130683816D01*
X204427693Y-130651094D01*
X204450303Y-130618446D01*
X204472907Y-130585872D01*
X204495506Y-130553371D01*
X204518098Y-130520944D01*
X204540686Y-130488590D01*
X204563268Y-130456309D01*
X204585846Y-130424101D01*
X204608420Y-130391967D01*
X204630990Y-130359905D01*
X204653556Y-130327917D01*
X204676119Y-130296001D01*
X204698679Y-130264158D01*
X204721236Y-130232388D01*
X204743791Y-130200690D01*
X204766344Y-130169065D01*
X204788895Y-130137513D01*
X204811446Y-130106032D01*
X204833995Y-130074624D01*
X204856543Y-130043288D01*
X204879091Y-130012025D01*
X204901640Y-129980833D01*
X204924188Y-129949713D01*
X204946737Y-129918665D01*
X204969288Y-129887689D01*
X204991839Y-129856784D01*
X205014393Y-129825952D01*
X205036948Y-129795190D01*
X205059506Y-129764500D01*
X205082066Y-129733882D01*
X205104629Y-129703334D01*
X205127196Y-129672858D01*
X205149766Y-129642453D01*
X205172340Y-129612119D01*
X205194919Y-129581856D01*
X205217502Y-129551663D01*
X205240090Y-129521542D01*
X205262683Y-129491491D01*
X205285282Y-129461510D01*
X205307887Y-129431601D01*
X205330498Y-129401761D01*
X205353116Y-129371992D01*
X205375741Y-129342293D01*
X205398373Y-129312665D01*
X205421013Y-129283106D01*
X205443660Y-129253618D01*
X205466316Y-129224199D01*
X205488981Y-129194850D01*
X205511654Y-129165571D01*
X205534337Y-129136362D01*
X205557029Y-129107222D01*
X205579731Y-129078152D01*
X205602444Y-129049151D01*
X205625167Y-129020220D01*
X205647900Y-128991357D01*
X205670645Y-128962564D01*
X205693402Y-128933840D01*
X205716171Y-128905185D01*
X205738951Y-128876599D01*
X205761745Y-128848082D01*
X205784551Y-128819633D01*
X205807370Y-128791254D01*
X205830203Y-128762942D01*
X205853050Y-128734699D01*
X205875911Y-128706525D01*
X205898786Y-128678419D01*
X205921677Y-128650381D01*
X205944582Y-128622412D01*
X205967503Y-128594510D01*
X205990440Y-128566676D01*
X206013393Y-128538911D01*
X206036363Y-128511213D01*
X206059349Y-128483583D01*
X206082353Y-128456020D01*
X206105374Y-128428525D01*
X206128413Y-128401098D01*
X206151470Y-128373738D01*
X206174546Y-128346445D01*
X206197640Y-128319220D01*
X206220753Y-128292062D01*
X206243886Y-128264970D01*
X206267039Y-128237946D01*
X206290212Y-128210989D01*
X206313405Y-128184098D01*
X206336620Y-128157275D01*
X206359855Y-128130517D01*
X206383112Y-128103827D01*
X206406390Y-128077203D01*
X206429691Y-128050645D01*
X206453014Y-128024154D01*
X206476360Y-127997729D01*
X206499728Y-127971370D01*
X206523121Y-127945077D01*
X206546537Y-127918850D01*
X206569977Y-127892689D01*
X206593442Y-127866594D01*
X206616931Y-127840564D01*
X206640445Y-127814600D01*
X206663985Y-127788702D01*
X206687551Y-127762869D01*
X206711143Y-127737102D01*
X206734761Y-127711400D01*
X206758405Y-127685763D01*
X206782077Y-127660191D01*
X206805776Y-127634684D01*
X206829503Y-127609243D01*
X206853258Y-127583866D01*
X206877041Y-127558554D01*
X206900854Y-127533307D01*
X206924695Y-127508124D01*
X206948565Y-127483006D01*
X206972465Y-127457952D01*
X206996395Y-127432963D01*
X207020356Y-127408038D01*
X207044347Y-127383177D01*
X207068369Y-127358381D01*
X207092423Y-127333648D01*
X207116508Y-127308980D01*
X207140625Y-127284375D01*
X207164775Y-127259834D01*
X207188957Y-127235357D01*
X207213172Y-127210943D01*
X207237420Y-127186593D01*
X207261702Y-127162307D01*
X207286019Y-127138084D01*
X207310369Y-127113924D01*
X207334754Y-127089827D01*
X207359174Y-127065794D01*
X207383629Y-127041824D01*
X207408120Y-127017916D01*
X207432647Y-126994071D01*
X207457210Y-126970290D01*
X207481810Y-126946571D01*
X207506447Y-126922914D01*
X207531121Y-126899320D01*
X207555833Y-126875789D01*
X207580582Y-126852320D01*
X207605370Y-126828913D01*
X207630197Y-126805568D01*
X207655062Y-126782286D01*
X207679966Y-126759065D01*
X207704911Y-126735907D01*
X207729895Y-126712810D01*
X207754919Y-126689776D01*
X207779984Y-126666803D01*
X207805090Y-126643891D01*
X207830237Y-126621041D01*
X207855425Y-126598253D01*
X207880656Y-126575526D01*
X207905929Y-126552860D01*
X207931244Y-126530255D01*
X207956602Y-126507712D01*
X207982003Y-126485229D01*
X208007448Y-126462808D01*
X208032937Y-126440447D01*
X208058470Y-126418147D01*
X208084047Y-126395908D01*
X208109670Y-126373729D01*
X208135337Y-126351611D01*
X208161050Y-126329554D01*
X208186809Y-126307557D01*
X208212614Y-126285620D01*
X208238466Y-126263743D01*
X208264364Y-126241926D01*
X208290310Y-126220170D01*
X208316303Y-126198473D01*
X208342344Y-126176836D01*
X208368433Y-126155259D01*
X208394570Y-126133742D01*
X208420757Y-126112284D01*
X208446992Y-126090886D01*
X208473277Y-126069547D01*
X208499612Y-126048268D01*
X208525997Y-126027048D01*
X208552432Y-126005887D01*
X208578919Y-125984785D01*
X208605456Y-125963743D01*
X208632045Y-125942759D01*
X208658685Y-125921834D01*
X208685378Y-125900968D01*
X208712123Y-125880160D01*
X208738921Y-125859411D01*
X208765771Y-125838721D01*
X208792676Y-125818089D01*
X208819634Y-125797515D01*
X208846646Y-125777000D01*
X208873713Y-125756543D01*
X208900834Y-125736144D01*
X208928011Y-125715803D01*
X208955243Y-125695519D01*
X208982530Y-125675294D01*
X209009874Y-125655127D01*
X209037274Y-125635017D01*
X209050995Y-125624984D01*
X209064731Y-125614965D01*
X209078480Y-125604960D01*
X209092244Y-125594970D01*
X209106023Y-125584994D01*
X209119816Y-125575033D01*
X209133623Y-125565086D01*
X209147445Y-125555153D01*
X209161281Y-125545234D01*
X209175132Y-125535330D01*
X209188997Y-125525440D01*
X209202877Y-125515565D01*
X209216772Y-125505703D01*
X209230681Y-125495856D01*
X209244605Y-125486024D01*
X209258544Y-125476205D01*
X209272498Y-125466401D01*
X209286467Y-125456611D01*
X209300450Y-125446835D01*
X209314449Y-125437073D01*
X209328462Y-125427325D01*
X209342491Y-125417592D01*
X209356535Y-125407873D01*
X209370594Y-125398168D01*
X209384668Y-125388477D01*
X209398757Y-125378800D01*
X209412861Y-125369138D01*
X209426981Y-125359489D01*
X209441116Y-125349855D01*
X209455267Y-125340235D01*
X209469433Y-125330629D01*
X209483614Y-125321036D01*
X209497811Y-125311458D01*
X209512023Y-125301894D01*
X209526251Y-125292344D01*
X209540495Y-125282809D01*
X209554754Y-125273287D01*
X209569029Y-125263779D01*
X209583320Y-125254285D01*
X209597626Y-125244805D01*
X209611949Y-125235339D01*
X209626287Y-125225887D01*
X209640641Y-125216449D01*
X209655011Y-125207025D01*
X209669397Y-125197615D01*
X209683799Y-125188219D01*
X209698217Y-125178837D01*
X209712652Y-125169468D01*
X209727102Y-125160114D01*
X209741569Y-125150773D01*
X209756052Y-125141447D01*
X209770551Y-125132134D01*
X209785066Y-125122835D01*
X209799598Y-125113550D01*
X209814147Y-125104278D01*
X209828711Y-125095021D01*
X209843293Y-125085777D01*
X209857890Y-125076548D01*
X209872505Y-125067331D01*
X209887136Y-125058129D01*
X209901783Y-125048941D01*
X209916447Y-125039766D01*
X209931129Y-125030605D01*
X209945826Y-125021458D01*
X209960541Y-125012324D01*
X209975272Y-125003204D01*
X209990021Y-124994098D01*
X210004786Y-124985006D01*
X210019568Y-124975927D01*
X210034368Y-124966862D01*
X210049184Y-124957811D01*
X210064018Y-124948773D01*
X210078868Y-124939749D01*
X210093736Y-124930739D01*
X210108621Y-124921742D01*
X210123524Y-124912759D01*
X210138443Y-124903789D01*
X210153380Y-124894833D01*
X210168335Y-124885891D01*
X210183307Y-124876962D01*
X210198296Y-124868047D01*
X210213303Y-124859145D01*
X210228327Y-124850257D01*
X210243369Y-124841382D01*
X210258429Y-124832521D01*
X210273506Y-124823673D01*
X210288601Y-124814839D01*
X210303714Y-124806018D01*
X210318845Y-124797211D01*
X210333993Y-124788418D01*
X210349160Y-124779637D01*
X210364344Y-124770870D01*
X210379546Y-124762117D01*
X210394767Y-124753377D01*
X210410005Y-124744651D01*
X210425262Y-124735938D01*
X210440536Y-124727238D01*
X210455829Y-124718551D01*
X210471140Y-124709879D01*
X210486469Y-124701219D01*
X210501817Y-124692573D01*
X210517183Y-124683940D01*
X210532567Y-124675320D01*
X210547970Y-124666714D01*
X210563391Y-124658121D01*
X210578831Y-124649541D01*
X210594289Y-124640975D01*
X210609766Y-124632422D01*
X210625261Y-124623882D01*
X210640775Y-124615356D01*
X210656308Y-124606842D01*
X210671860Y-124598342D01*
X210687430Y-124589855D01*
X210703019Y-124581382D01*
X210718627Y-124572921D01*
X210734255Y-124564474D01*
X210749901Y-124556040D01*
X210765566Y-124547619D01*
X210781250Y-124539211D01*
X210796953Y-124530817D01*
X210812675Y-124522435D01*
X210828416Y-124514067D01*
X210844177Y-124505712D01*
X210859957Y-124497370D01*
X210875756Y-124489041D01*
X210891575Y-124480725D01*
X210907413Y-124472422D01*
X210923270Y-124464133D01*
X210939147Y-124455856D01*
X210955043Y-124447592D01*
X210970959Y-124439342D01*
X210986894Y-124431104D01*
X211002849Y-124422880D01*
X211018824Y-124414668D01*
X211034818Y-124406470D01*
X211050832Y-124398284D01*
X211066866Y-124390111D01*
X211082920Y-124381952D01*
X211098994Y-124373805D01*
X211115087Y-124365672D01*
X211131201Y-124357551D01*
X211147334Y-124349443D01*
X211163488Y-124341348D01*
X211179661Y-124333266D01*
X211195855Y-124325197D01*
X211212069Y-124317141D01*
X211228303Y-124309097D01*
X211244557Y-124301067D01*
X211260831Y-124293049D01*
X211277126Y-124285044D01*
X211293442Y-124277052D01*
X211309777Y-124269073D01*
X211326133Y-124261106D01*
X211342510Y-124253153D01*
X211358907Y-124245212D01*
X211375325Y-124237284D01*
X211391763Y-124229369D01*
X211408222Y-124221466D01*
X211424702Y-124213576D01*
X211441202Y-124205699D01*
X211457723Y-124197835D01*
X211474265Y-124189983D01*
X211490828Y-124182145D01*
X211507412Y-124174318D01*
X211524016Y-124166505D01*
X211540642Y-124158704D01*
X211557289Y-124150916D01*
X211573956Y-124143140D01*
X211590645Y-124135377D01*
X211607355Y-124127627D01*
X211624086Y-124119889D01*
X211640839Y-124112164D01*
X211657612Y-124104452D01*
X211674407Y-124096752D01*
X211691224Y-124089065D01*
X211708061Y-124081390D01*
X211724920Y-124073728D01*
X211741801Y-124066078D01*
X211758703Y-124058441D01*
X211775627Y-124050817D01*
X211792572Y-124043204D01*
X211809539Y-124035605D01*
X211826528Y-124028018D01*
X211843538Y-124020443D01*
X211860570Y-124012881D01*
X211877624Y-124005332D01*
X211894700Y-123997794D01*
X211911798Y-123990270D01*
X211928917Y-123982757D01*
X211946059Y-123975257D01*
X211963222Y-123967770D01*
X211980408Y-123960295D01*
X211997616Y-123952832D01*
X212014846Y-123945382D01*
X212032098Y-123937944D01*
X212049372Y-123930518D01*
X212066668Y-123923105D01*
X212083987Y-123915704D01*
X212101328Y-123908315D01*
X212118692Y-123900939D01*
X212136078Y-123893575D01*
X212153486Y-123886223D01*
X212170917Y-123878884D01*
X212188371Y-123871557D01*
X212205847Y-123864242D01*
X212223345Y-123856939D01*
X212240867Y-123849649D01*
X212258411Y-123842371D01*
X212293567Y-123827851D01*
X212328815Y-123813380D01*
X212364154Y-123798958D01*
X212399586Y-123784585D01*
X212435110Y-123770260D01*
X212470726Y-123755983D01*
X212506436Y-123741755D01*
X212542238Y-123727575D01*
X212578135Y-123713444D01*
X212614125Y-123699360D01*
X212650210Y-123685325D01*
X212686389Y-123671337D01*
X212722664Y-123657398D01*
X212759033Y-123643506D01*
X212795498Y-123629662D01*
X212832060Y-123615865D01*
X212868717Y-123602116D01*
X212905471Y-123588415D01*
X212942322Y-123574761D01*
X212979271Y-123561154D01*
X213016317Y-123547594D01*
X213053461Y-123534082D01*
X213090703Y-123520616D01*
X213128044Y-123507198D01*
X213165483Y-123493826D01*
X213203022Y-123480501D01*
X213240661Y-123467223D01*
X213278399Y-123453992D01*
X213316238Y-123440807D01*
X213354177Y-123427668D01*
X213392217Y-123414576D01*
X213430359Y-123401530D01*
X213468602Y-123388530D01*
X213506947Y-123375577D01*
X213545394Y-123362669D01*
X213583943Y-123349807D01*
X213622596Y-123336992D01*
X213661351Y-123324222D01*
X213700211Y-123311497D01*
X213739174Y-123298819D01*
X213778241Y-123286186D01*
X213817413Y-123273598D01*
X213856690Y-123261056D01*
X213896072Y-123248559D01*
X213935559Y-123236107D01*
X213975153Y-123223700D01*
X214014852Y-123211338D01*
X214054658Y-123199021D01*
X214094571Y-123186750D01*
X214134591Y-123174522D01*
X214174718Y-123162340D01*
X214214954Y-123150202D01*
X214255297Y-123138109D01*
X214295749Y-123126060D01*
X214336310Y-123114055D01*
X214376980Y-123102095D01*
X214417759Y-123090179D01*
X214458649Y-123078307D01*
X214499648Y-123066479D01*
X214540758Y-123054695D01*
X214581978Y-123042955D01*
X214623310Y-123031258D01*
X214664753Y-123019606D01*
X214706308Y-123007997D01*
X214747975Y-122996431D01*
X214789755Y-122984909D01*
X214831647Y-122973430D01*
X214873653Y-122961994D01*
X214915771Y-122950602D01*
X214958004Y-122939253D01*
X215000351Y-122927946D01*
X215042812Y-122916683D01*
X215085388Y-122905463D01*
X215128079Y-122894285D01*
X215170885Y-122883150D01*
X215213807Y-122872057D01*
X215256845Y-122861008D01*
X215300000Y-122850000D01*
X215343271Y-122839035D01*
X215386660Y-122828112D01*
X215430165Y-122817231D01*
X215473789Y-122806393D01*
X215517530Y-122795596D01*
X215561390Y-122784841D01*
X215605369Y-122774128D01*
X215649467Y-122763457D01*
X215693684Y-122752828D01*
X215738020Y-122742240D01*
X215782477Y-122731694D01*
X215827054Y-122721189D01*
X215871752Y-122710725D01*
X215916571Y-122700303D01*
X215961511Y-122689922D01*
X216006573Y-122679581D01*
X216051757Y-122669282D01*
X216097063Y-122659024D01*
X216142492Y-122648807D01*
X216188043Y-122638630D01*
X216233718Y-122628494D01*
X216279517Y-122618399D01*
X216325440Y-122608344D01*
X216371487Y-122598330D01*
X216417659Y-122588356D01*
X216463956Y-122578422D01*
X216510378Y-122568528D01*
X216556925Y-122558675D01*
X216603599Y-122548861D01*
X216650399Y-122539087D01*
X216697325Y-122529354D01*
X216744379Y-122519659D01*
X216791559Y-122510005D01*
X216838868Y-122500390D01*
X216886304Y-122490815D01*
X216933869Y-122481279D01*
X216981562Y-122471782D01*
X217029384Y-122462325D01*
X217077335Y-122452906D01*
X217125416Y-122443527D01*
X217173627Y-122434187D01*
X217221968Y-122424886D01*
X217270440Y-122415623D01*
X217319042Y-122406400D01*
X217367776Y-122397215D01*
X217416641Y-122388068D01*
X217465639Y-122378960D01*
X217514768Y-122369891D01*
X217564030Y-122360859D01*
X217613425Y-122351866D01*
X217662953Y-122342911D01*
X217712615Y-122333995D01*
X217762411Y-122325116D01*
X217812340Y-122316275D01*
X217862405Y-122307472D01*
X217912604Y-122298706D01*
X217962938Y-122289979D01*
X218013408Y-122281288D01*
X218064014Y-122272636D01*
X218114756Y-122264020D01*
X218165634Y-122255443D01*
X218216649Y-122246902D01*
X218267802Y-122238398D01*
X218319092Y-122229932D01*
X218370520Y-122221502D01*
X218422085Y-122213109D01*
X218473790Y-122204754D01*
X218525633Y-122196434D01*
X218577616Y-122188152D01*
X218629737Y-122179906D01*
X218681999Y-122171697D01*
X218734401Y-122163524D01*
X218786943Y-122155387D01*
X218839626Y-122147286D01*
X218892450Y-122139222D01*
X218945416Y-122131194D01*
X218998523Y-122123201D01*
X219051773Y-122115245D01*
X219105165Y-122107324D01*
X219158700Y-122099439D01*
X219212378Y-122091590D01*
X219266199Y-122083776D01*
X219320164Y-122075998D01*
X219374273Y-122068255D01*
X219428527Y-122060547D01*
X219482925Y-122052875D01*
X219537469Y-122045238D01*
X219592157Y-122037636D01*
X219646992Y-122030068D01*
X219701973Y-122022536D01*
X219757100Y-122015039D01*
X219812374Y-122007576D01*
X219867794Y-122000148D01*
X219923363Y-121992754D01*
X219979079Y-121985395D01*
X220034943Y-121978070D01*
X220090955Y-121970780D01*
X220147116Y-121963523D01*
X220203426Y-121956301D01*
X220259886Y-121949113D01*
X220316495Y-121941959D01*
X220373254Y-121934839D01*
X220430164Y-121927752D01*
X220487224Y-121920699D01*
X220544435Y-121913680D01*
X220601798Y-121906695D01*
X220659312Y-121899743D01*
X220716979Y-121892824D01*
X220774797Y-121885938D01*
X220832769Y-121879086D01*
X220890893Y-121872267D01*
X220949171Y-121865481D01*
X221007602Y-121858728D01*
X221066187Y-121852007D01*
X221124927Y-121845320D01*
X221183821Y-121838665D01*
X221242870Y-121832043D01*
X221302075Y-121825453D01*
X221361435Y-121818896D01*
X221420951Y-121812371D01*
X221480624Y-121805879D01*
X221540453Y-121799419D01*
X221600439Y-121792990D01*
X221660582Y-121786594D01*
X221720883Y-121780230D01*
X221781342Y-121773898D01*
X221841959Y-121767597D01*
X221902734Y-121761328D01*
X221963669Y-121755091D01*
X222024763Y-121748885D01*
X222086016Y-121742711D01*
X222147430Y-121736568D01*
X222209003Y-121730456D01*
X222270738Y-121724376D01*
X222332633Y-121718327D01*
X222394689Y-121712308D01*
X222456907Y-121706321D01*
X222519287Y-121700364D01*
X222581829Y-121694439D01*
X222644534Y-121688544D01*
X222707401Y-121682679D01*
X222770432Y-121676845D01*
X222833626Y-121671042D01*
X222896984Y-121665269D01*
X222960506Y-121659526D01*
X223024193Y-121653813D01*
X223088045Y-121648131D01*
X223152062Y-121642478D01*
X223216244Y-121636856D01*
X223280593Y-121631263D01*
X223345107Y-121625700D01*
X223409788Y-121620167D01*
X223474636Y-121614663D01*
X223539651Y-121609189D01*
X223604834Y-121603744D01*
X223670184Y-121598329D01*
X223735702Y-121592943D01*
X223801389Y-121587586D01*
X223867245Y-121582258D01*
X223933270Y-121576959D01*
X223999465Y-121571689D01*
X224065829Y-121566448D01*
X224132363Y-121561236D01*
X224199068Y-121556053D01*
X224265944Y-121550898D01*
X224332991Y-121545771D01*
X224400209Y-121540673D01*
X224467599Y-121535603D01*
X224535161Y-121530562D01*
X224602896Y-121525549D01*
X224670803Y-121520564D01*
X224738884Y-121515606D01*
X224807138Y-121510677D01*
X224875565Y-121505776D01*
X224944167Y-121500902D01*
X225012943Y-121496056D01*
X225081894Y-121491238D01*
X225151020Y-121486447D01*
X225220322Y-121481684D01*
X225289799Y-121476948D01*
X225359452Y-121472239D01*
X225429282Y-121467557D01*
X225499288Y-121462903D01*
X225569472Y-121458275D01*
X225639833Y-121453674D01*
X225710371Y-121449101D01*
X225781088Y-121444554D01*
X225851983Y-121440033D01*
X225923057Y-121435539D01*
X225994310Y-121431072D01*
X226065742Y-121426631D01*
X226137354Y-121422217D01*
X226209145Y-121417829D01*
X226281118Y-121413466D01*
X226353271Y-121409130D01*
X226425605Y-121404820D01*
X226498120Y-121400536D01*
X226570817Y-121396278D01*
X226643696Y-121392045D01*
X226716757Y-121387838D01*
X226790001Y-121383657D01*
X226863428Y-121379501D01*
X226937038Y-121375371D01*
X227010832Y-121371266D01*
X227084810Y-121367186D01*
X227158973Y-121363131D01*
X227233320Y-121359102D01*
X227307851Y-121355097D01*
X227382569Y-121351118D01*
X227457471Y-121347163D01*
X227532560Y-121343233D01*
X227607835Y-121339327D01*
X227683297Y-121335446D01*
X227758946Y-121331590D01*
X227834782Y-121327758D01*
X227910805Y-121323950D01*
X227987017Y-121320167D01*
X228063417Y-121316407D01*
X228140005Y-121312672D01*
X228216782Y-121308961D01*
X228293749Y-121305274D01*
X228370905Y-121301610D01*
X228448251Y-121297970D01*
X228525787Y-121294354D01*
X228603514Y-121290762D01*
X228681432Y-121287193D01*
X228759541Y-121283647D01*
X228837842Y-121280125D01*
X228916334Y-121276626D01*
X228995019Y-121273150D01*
X229073896Y-121269697D01*
X229152967Y-121266267D01*
X229232230Y-121262860D01*
X229311687Y-121259475D01*
X229391338Y-121256114D01*
X229471183Y-121252775D01*
X229551222Y-121249459D01*
X229631457Y-121246165D01*
X229711887Y-121242894D01*
X229792512Y-121239645D01*
X229873333Y-121236418D01*
X229954350Y-121233213D01*
X230035564Y-121230030D01*
X230116974Y-121226870D01*
X230198582Y-121223731D01*
X230280387Y-121220614D01*
X230362390Y-121217519D01*
X230444592Y-121214445D01*
X230526991Y-121211393D01*
X230609590Y-121208362D01*
X230692388Y-121205353D01*
X230775385Y-121202365D01*
X230858582Y-121199399D01*
X230941979Y-121196453D01*
X231025577Y-121193529D01*
X231109375Y-121190625D01*
X231193375Y-121187742D01*
X231277576Y-121184881D01*
X231361978Y-121182039D01*
X231446583Y-121179219D01*
X231531391Y-121176419D01*
X231616401Y-121173640D01*
X231701614Y-121170880D01*
X231787031Y-121168142D01*
X231872651Y-121165423D01*
X231958476Y-121162725D01*
X232044505Y-121160046D01*
X232130738Y-121157388D01*
X232217177Y-121154749D01*
X232303821Y-121152131D01*
X232390671Y-121149531D01*
X232477728Y-121146952D01*
X232564990Y-121144392D01*
X232652459Y-121141852D01*
X232740135Y-121139331D01*
X232828019Y-121136829D01*
X232916110Y-121134346D01*
X233004410Y-121131883D01*
X233092918Y-121129439D01*
X233181634Y-121127013D01*
X233270560Y-121124607D01*
X233359695Y-121122219D01*
X233449039Y-121119850D01*
X233538594Y-121117500D01*
X233628359Y-121115168D01*
X233718335Y-121112854D01*
X233808522Y-121110559D01*
X233898920Y-121108282D01*
X233989529Y-121106024D01*
X234080351Y-121103783D01*
X234171385Y-121101561D01*
X234262632Y-121099357D01*
X234354092Y-121097170D01*
X234445765Y-121095001D01*
X234537652Y-121092850D01*
X234629753Y-121090717D01*
X234722068Y-121088601D01*
X234814597Y-121086502D01*
X234907342Y-121084421D01*
X235000302Y-121082357D01*
X235093478Y-121080311D01*
X235186869Y-121078281D01*
X235280477Y-121076268D01*
X235374302Y-121074273D01*
X235468343Y-121072294D01*
X235562602Y-121070332D01*
X235657079Y-121068387D01*
X235751773Y-121066458D01*
X235846686Y-121064546D01*
X235941817Y-121062651D01*
X236037167Y-121060771D01*
X236132736Y-121058908D01*
X236228525Y-121057062D01*
X236324534Y-121055231D01*
X236420763Y-121053416D01*
X236517213Y-121051617D01*
X236710776Y-121048067D01*
X236905225Y-121044580D01*
X237100562Y-121041155D01*
X237296792Y-121037791D01*
X237493915Y-121034488D01*
X237691936Y-121031245D01*
X237890855Y-121028062D01*
X238090677Y-121024937D01*
X238291404Y-121021870D01*
X238493038Y-121018861D01*
X238695582Y-121015908D01*
X238899039Y-121013011D01*
X239103411Y-121010170D01*
X239308701Y-121007384D01*
X239514912Y-121004651D01*
X239722045Y-121001972D01*
X239930105Y-120999346D01*
X240139093Y-120996771D01*
X240349012Y-120994248D01*
X240559865Y-120991776D01*
X240771655Y-120989354D01*
X240984383Y-120986981D01*
X241198053Y-120984656D01*
X241412667Y-120982380D01*
X241628229Y-120980151D01*
X241844740Y-120977969D01*
X242062203Y-120975832D01*
X242280621Y-120973741D01*
X242499996Y-120971695D01*
X242720332Y-120969693D01*
X242941630Y-120967733D01*
X243163894Y-120965817D01*
X243387126Y-120963943D01*
X243611328Y-120962109D01*
X243836504Y-120960317D01*
X244062656Y-120958564D01*
X244289786Y-120956851D01*
X244517898Y-120955176D01*
X244746993Y-120953540D01*
X244977075Y-120951940D01*
X245208146Y-120950377D01*
X245440209Y-120948850D01*
X245673267Y-120947359D01*
X245907321Y-120945902D01*
X246142375Y-120944478D01*
X246378431Y-120943088D01*
X246615493Y-120941731D01*
X246853562Y-120940406D01*
X247092641Y-120939112D01*
X247332733Y-120937848D01*
X247573841Y-120936614D01*
X247815967Y-120935410D01*
X248059113Y-120934234D01*
X248303283Y-120933086D01*
X248548479Y-120931965D01*
X248794704Y-120930871D01*
X249041960Y-120929802D01*
X249290250Y-120928759D01*
X249539577Y-120927740D01*
X249789943Y-120926746D01*
X250041351Y-120925774D01*
X250293804Y-120924825D01*
X250547303Y-120923898D01*
X250801853Y-120922992D01*
X251057454Y-120922106D01*
X251314111Y-120921240D01*
X251571826Y-120920394D01*
X251830601Y-120919566D01*
X252090439Y-120918755D01*
X252351343Y-120917962D01*
X252876357Y-120916425D01*
X253405666Y-120914948D01*
X253939291Y-120913527D01*
X254477251Y-120912155D01*
X255019569Y-120910828D01*
X255566266Y-120909540D01*
X256117362Y-120908285D01*
X256672879Y-120907060D01*
X257232838Y-120905857D01*
X257797260Y-120904671D01*
X258939578Y-120902333D01*
X260100000Y-120900000D01*
D10*
X260100000Y-120900000D02*
X260100000Y-76900000D01*
M02*
